<svg width="450" height="450" viewBox="0 0 450 450" fill="none" xmlns="http://www.w3.org/2000/svg">
<path d="M262.988 393.39C262.289 393.39 261.663 392.898 261.519 392.186C261.356 391.373 261.881 390.584 262.694 390.419L378.704 367.069C379.512 366.912 380.306 367.431 380.471 368.244C380.634 369.057 380.109 369.847 379.296 370.011L263.286 393.361C263.186 393.38 263.087 393.39 262.988 393.39Z" fill="#0A88A5"/>
<path d="M296.389 257.59C295.583 257.59 294.917 256.951 294.891 256.14C294.864 255.312 295.512 254.619 296.34 254.591L378.95 251.841C379.754 251.771 380.471 252.462 380.499 253.29C380.526 254.118 379.878 254.811 379.05 254.839L296.44 257.589C296.423 257.59 296.405 257.59 296.389 257.59Z" fill="#0A88A5"/>
<path d="M263.908 157.641C263.204 157.641 262.575 157.142 262.437 156.424C262.28 155.611 262.813 154.824 263.627 154.668L359.207 136.278C360.013 136.124 360.807 136.653 360.963 137.468C361.12 138.282 360.587 139.068 359.773 139.224L264.193 157.614C264.098 157.631 264.003 157.641 263.908 157.641Z" fill="#0A88A5"/>
<path d="M185.061 161.57C184.95 161.57 184.837 161.557 184.724 161.531L90.1739 139.801C89.3659 139.615 88.8619 138.81 89.0479 138.003C89.2339 137.196 90.0369 136.691 90.8459 136.877L185.396 158.607C186.204 158.793 186.707 159.598 186.522 160.405C186.362 161.1 185.745 161.57 185.061 161.57Z" fill="#0A88A5"/>
<path d="M71.511 369.84C71.071 369.84 70.634 369.647 70.338 369.277C69.821 368.63 69.926 367.685 70.574 367.169L150.954 302.959C151.601 302.443 152.545 302.549 153.062 303.194C153.579 303.841 153.474 304.786 152.826 305.302L72.446 369.512C72.169 369.732 71.839 369.84 71.511 369.84Z" fill="#0A88A5"/>
<path d="M71.5109 258.94C70.9869 258.94 70.4779 258.666 70.2019 258.176C69.7959 257.453 70.0519 256.539 70.7729 256.133L197.387 184.854C198.109 184.448 199.023 184.704 199.43 185.425C199.836 186.147 199.58 187.062 198.859 187.468L72.2459 258.747C72.0129 258.879 71.7599 258.94 71.5109 258.94Z" fill="#0A88A5"/>
<path d="M224.92 117.83H224.918C224.089 117.829 223.419 117.156 223.42 116.328L223.5 60.1079C223.501 59.2799 224.172 58.6099 225 58.6099H225.001C225.83 58.6109 226.501 59.2839 226.5 60.1119L226.42 116.332C226.419 117.16 225.748 117.83 224.92 117.83Z" fill="#0A88A5"/>
<path d="M225 102.113C248.196 102.113 267 83.3088 267 60.1128C267 36.9168 248.196 18.1128 225 18.1128C201.804 18.1128 183 36.9168 183 60.1128C183 83.3088 201.804 102.113 225 102.113Z" fill="#0A88A5"/>
<path d="M225 23.3628C204.704 23.3628 188.25 39.8158 188.25 60.1118C188.25 80.4088 204.704 96.8618 225 96.8618C245.296 96.8618 261.75 80.4088 261.75 60.1118C261.75 39.8158 245.296 23.3628 225 23.3628ZM248.152 68.5248C247.057 68.5248 239.639 70.8798 225.005 70.8798C210.366 70.8798 202.945 68.5248 201.853 68.5248C197.109 68.5248 194.768 67.6478 199.857 63.4158C201.255 56.9958 204.35 51.8428 208.775 48.3168C208.302 47.4378 208.601 46.3398 209.471 45.8348L212.687 43.9808C213.574 43.4688 214.711 43.7698 215.221 44.6598L215.246 44.7038C217.13 44.0138 219.146 43.5318 221.288 43.2758V43.0348C221.288 42.0098 222.119 41.1798 223.143 41.1798H225H225.005H226.861C227.884 41.1798 228.715 42.0098 228.715 43.0348V43.2758C230.858 43.5318 232.876 44.0128 234.757 44.7038L234.784 44.6598C235.295 43.7698 236.431 43.4698 237.317 43.9808L240.533 45.8348C241.404 46.3408 241.703 47.4388 241.23 48.3168C245.653 51.8418 248.748 56.9958 250.147 63.4158C255.234 67.6478 252.895 68.5248 248.152 68.5248Z" fill="#F5F5F5"/>
<path d="M71.5081 295.341C94.704 295.341 113.508 276.537 113.508 253.341C113.508 230.145 94.704 211.341 71.5081 211.341C48.3121 211.341 29.5081 230.145 29.5081 253.341C29.5081 276.537 48.3121 295.341 71.5081 295.341Z" fill="#0A88A5"/>
<path d="M71.5081 216.592C51.2121 216.592 34.7581 233.045 34.7581 253.34C34.7581 273.636 51.2121 290.09 71.5081 290.09C91.8041 290.09 108.258 273.636 108.258 253.34C108.258 233.045 91.8041 216.592 71.5081 216.592ZM45.8381 245.025C45.8381 242.09 46.5451 240.402 47.9991 239.861C51.2331 238.656 56.5421 244.18 62.2291 250.716C61.8611 251.123 61.5011 251.553 61.1561 252.004C57.7211 248.042 51.0121 240.515 48.5771 241.412C47.8791 241.673 47.4941 242.955 47.4941 245.025C47.4941 252.92 53.0281 259.566 57.9351 263.511C58.1111 264.445 58.3781 265.341 58.7481 266.184C53.0101 262.172 45.8381 254.311 45.8381 245.025ZM71.5091 272.286C64.7971 272.286 59.3581 267.822 59.3581 261.11C59.3581 256.992 62.1021 252.7 65.3471 249.996C67.3901 248.294 68.2641 245.854 71.5091 245.854C74.8491 245.854 75.6311 248.293 77.6771 249.998C80.9191 252.701 83.6611 256.994 83.6611 261.109C83.6611 267.822 78.2211 272.286 71.5091 272.286ZM84.2711 266.183C84.6401 265.341 84.9081 264.445 85.0841 263.511C89.9901 259.566 95.5241 252.92 95.5241 245.026C95.5241 242.956 95.1391 241.673 94.4421 241.414C92.0101 240.508 85.2981 248.04 81.8621 252.004C81.5161 251.552 81.1561 251.122 80.7901 250.715C86.4761 244.181 91.7781 238.655 95.0191 239.862C96.4731 240.403 97.1801 242.092 97.1801 245.026C97.1801 254.31 90.0101 262.171 84.2711 266.183ZM77.3051 253.308C76.4771 253.308 74.8211 249.996 71.5091 249.996C68.1961 249.996 66.5401 253.308 65.7111 253.308C65.1781 253.308 64.8851 253.679 64.8851 254.135C64.8851 254.595 65.2541 254.964 65.7111 254.964C66.5401 254.964 69.8521 251.651 71.5091 251.651C73.1651 251.651 76.4771 254.964 77.3051 254.964C77.8131 254.964 78.1321 254.595 78.1321 254.135C78.1321 253.679 77.7631 253.308 77.3051 253.308Z" fill="#F5F5F5"/>
<path d="M401.492 138.34C401.492 161.536 382.686 180.341 359.492 180.341C336.296 180.341 317.492 161.536 317.492 138.34C317.492 115.144 336.296 96.3398 359.492 96.3398C382.686 96.3398 401.492 115.144 401.492 138.34Z" fill="#0A88A5"/>
<path d="M359.49 101.591C339.197 101.591 322.742 118.045 322.742 138.34C322.742 158.637 339.197 175.09 359.49 175.09C379.788 175.09 396.242 158.637 396.242 138.34C396.242 118.045 379.788 101.591 359.49 101.591ZM385.164 138.34C385.164 139.258 384.421 139.996 383.507 139.996H382.564C381.746 146.522 376.173 151.59 369.428 151.59C366.43 151.59 365.011 150.976 362.804 149.934C362.25 149.674 361.15 148.279 359.494 148.355C357.837 148.279 356.733 149.674 356.18 149.934C353.976 150.976 352.554 151.59 349.556 151.59C342.811 151.59 337.24 146.523 336.421 139.996H335.48C334.563 139.996 333.821 139.258 333.821 138.34V131.717C333.821 130.801 334.563 130.061 335.48 130.061H336.306V128.405C336.306 126.577 337.791 125.092 339.62 125.092H379.366C381.195 125.092 382.678 126.575 382.678 128.405V130.061H383.507C384.421 130.061 385.164 130.801 385.164 131.717V138.34ZM369.428 128.818H349.556C341.546 128.818 340.034 130.331 340.034 138.339C340.034 140.88 341.022 143.27 342.825 145.072C344.626 146.871 347.014 147.863 349.555 147.863C351.391 147.863 353.045 147.008 354.65 146.174C356.194 145.377 357.788 144.55 359.494 144.55C361.198 144.55 362.794 145.377 364.334 146.173C365.937 147.007 367.595 147.862 369.428 147.862C374.68 147.862 378.952 143.589 378.952 138.337C378.952 133.991 378.466 131.81 377.213 130.56C375.956 129.308 373.777 128.818 369.428 128.818Z" fill="#F5F5F5"/>
<path d="M90.5081 180.341C113.704 180.341 132.508 161.537 132.508 138.341C132.508 115.145 113.704 96.3408 90.5081 96.3408C67.3121 96.3408 48.5081 115.145 48.5081 138.341C48.5081 161.537 67.3121 180.341 90.5081 180.341Z" fill="#0A88A5"/>
<path d="M90.5071 101.591C70.2111 101.591 53.7581 118.044 53.7581 138.34C53.7581 158.637 70.2111 175.09 90.5071 175.09C110.805 175.09 127.258 158.637 127.258 138.34C127.258 118.044 110.805 101.591 90.5071 101.591ZM110.882 156.388C110.822 157.517 109.903 158.378 108.837 158.315C107.768 158.248 106.952 157.28 107.013 156.152L108.013 137.741C108.073 136.613 108.989 135.748 110.059 135.816C111.123 135.88 111.942 136.846 111.881 137.978C111.939 137.981 111.995 137.996 112.051 138.002C111.384 132.976 109.182 128.464 105.959 125.02C105.12 125.08 103.605 124.356 102.109 123.102C101.398 122.506 100.79 121.874 100.336 121.284C99.4581 121.41 98.0301 121.136 96.5081 120.471C95.4021 119.988 94.4621 119.395 93.8211 118.821C93.0101 119.147 91.8351 119.357 90.5071 119.357C89.1801 119.357 88.0061 119.147 87.1941 118.821C86.5531 119.395 85.6131 119.988 84.5051 120.471C82.9841 121.136 81.5551 121.41 80.6811 121.284C80.2251 121.875 79.6201 122.507 78.9061 123.102C77.4101 124.358 75.8931 125.08 75.0541 125.019C71.8311 128.463 69.6291 132.975 68.9621 138.001C69.0201 137.996 69.0761 137.981 69.1351 137.977C69.0741 136.845 69.8901 135.878 70.9591 135.815C72.0271 135.747 72.9421 136.612 73.0021 137.74L74.0041 156.151C74.0651 157.279 73.2471 158.247 72.1801 158.314C71.1111 158.377 70.1951 157.516 70.1351 156.387C66.9301 156.579 64.1111 152.617 63.8331 147.535C63.7031 145.147 64.1631 142.944 65.0141 141.251V141.22C65.0141 126.366 76.4501 114.28 90.5071 114.28C104.566 114.28 116.002 126.366 116.002 141.22V141.254C116.851 142.947 117.312 145.149 117.184 147.535C116.905 152.617 114.086 156.578 110.882 156.388Z" fill="#F5F5F5"/>
<path d="M378.492 410.341C401.688 410.341 420.492 391.537 420.492 368.341C420.492 345.145 401.688 326.341 378.492 326.341C355.296 326.341 336.492 345.145 336.492 368.341C336.492 391.537 355.296 410.341 378.492 410.341Z" fill="#0A88A5"/>
<path d="M378.492 331.591C358.195 331.591 341.742 348.044 341.742 368.342C341.742 388.639 358.195 405.091 378.492 405.091C398.788 405.091 415.242 388.639 415.242 368.342C415.242 348.044 398.788 331.591 378.492 331.591ZM372.54 344.537H392.376L392.373 346.85H377.497V351.151H372.778L372.659 349.821C372.592 349.098 372.54 347.911 372.54 347.183V344.537ZM363.065 388.175H359.977C359.251 388.175 358.506 388.027 358.324 387.846C358.143 387.664 357.994 387.07 357.994 386.522C357.994 385.982 358.144 385.533 358.324 385.533C358.507 385.533 358.507 385.236 358.324 384.871C358.143 384.507 357.996 383.614 357.996 382.889C357.996 382.161 358.294 381.268 358.654 380.906C359.019 380.542 359.881 380.057 360.572 379.826L362.03 379.342C362.718 379.113 363.872 378.823 364.588 378.705L369.913 377.817C370.631 377.699 371.638 377.18 372.152 376.664L374.251 374.567C374.764 374.052 375.112 373.041 375.019 372.318L374.027 364.366C373.934 363.644 373.807 362.462 373.744 361.736L372.959 353.134H377.564C377.583 353.428 377.601 353.708 377.624 353.944L377.76 355.448L378.707 365.856C378.774 366.595 378.904 367.801 378.996 368.537L379.991 376.496C380.017 376.71 379.846 377.213 379.691 377.366L377.595 379.462C377.324 379.733 376.633 380.089 376.256 380.153L370.928 381.04C370.145 381.169 368.914 381.474 368.118 381.735L366.658 382.222C365.849 382.493 364.712 383.087 364.097 383.702C363.311 384.49 362.952 385.888 362.952 386.854C362.953 387.241 362.992 387.711 363.065 388.175ZM397.783 365.702C397.718 366.425 397.566 367.604 397.447 368.324L396.559 373.648C396.44 374.364 396.341 375.546 396.341 376.277C396.341 377 396.53 378.161 396.759 378.849L397.245 380.308C397.476 380.997 397.663 382.159 397.663 382.887V385.532C397.663 386.26 397.663 387.15 397.663 387.514C397.663 387.882 397.513 388.474 397.333 388.836C397.15 389.203 397.15 389.496 397.333 389.496C397.514 389.496 397.663 389.945 397.663 390.49C397.663 391.037 397.592 391.628 397.499 391.811C397.407 391.994 396.736 392.141 396.011 392.141H389.73C389.002 392.141 388.407 391.842 388.407 391.48C388.407 391.119 387.812 390.82 387.087 390.82H385.764C385.038 390.82 384.144 391.119 383.781 391.48C383.419 391.845 382.524 392.141 381.797 392.141H366.59C365.864 392.141 365.122 391.993 364.94 391.811C364.757 391.627 364.607 391.037 364.607 390.49C364.607 389.945 364.757 389.496 364.94 389.496C365.123 389.496 365.123 389.203 364.94 388.836C364.757 388.474 364.607 387.578 364.607 386.853C364.607 386.123 364.905 385.235 365.27 384.87C365.632 384.506 366.497 384.019 367.185 383.789L368.643 383.302C369.334 383.076 370.485 382.788 371.203 382.67L376.529 381.782C377.245 381.661 378.254 381.144 378.768 380.629L380.864 378.534C381.379 378.018 381.725 377.007 381.635 376.286L380.638 368.33C380.548 367.608 380.423 366.425 380.355 365.702L379.574 357.102H398.568L397.783 365.702ZM398.987 351.151C398.987 351.878 398.931 353.065 398.868 353.79L398.749 355.117H379.395L379.272 353.79C379.206 353.065 379.151 351.878 379.151 351.151L379.153 348.505H398.988V351.151H398.987Z" fill="#F5F5F5"/>
<path d="M71.5081 410.341C94.704 410.341 113.508 391.537 113.508 368.341C113.508 345.145 94.704 326.341 71.5081 326.341C48.3121 326.341 29.5081 345.145 29.5081 368.341C29.5081 391.537 48.3121 410.341 71.5081 410.341Z" fill="#0A88A5"/>
<path d="M71.5081 331.591C51.2121 331.591 34.7581 348.044 34.7581 368.34C34.7581 388.638 51.2121 405.092 71.5081 405.092C91.8051 405.092 108.258 388.638 108.258 368.34C108.258 348.044 91.8051 331.591 71.5081 331.591ZM56.5381 375.149L46.1661 369.096C44.7691 368.282 44.2971 366.489 45.1121 365.092C45.9281 363.696 47.7201 363.224 49.1151 364.041L53.2871 366.476L48.9061 354.833C48.4121 353.52 49.0731 352.059 50.3851 351.564C51.6921 351.073 53.1491 351.732 53.6481 353.035L52.7611 350.678C52.7611 350.678 52.7601 350.674 52.7581 350.671C52.2671 349.362 52.9291 347.898 54.2391 347.405C55.5511 346.91 57.0121 347.574 57.5071 348.882V348.884L57.9511 350.067C57.4631 348.755 58.1241 347.298 59.4341 346.803C60.7471 346.311 62.2101 346.974 62.7041 348.284L62.7051 348.283L64.0431 351.841C63.5521 350.53 64.2151 349.07 65.5221 348.578C66.8351 348.084 68.2951 348.746 68.7911 350.06L69.7901 352.716C68.8291 353.088 68.0191 353.751 67.4911 354.655C66.8751 355.713 66.7071 356.946 67.0191 358.128L69.9001 369.093L64.5791 378.473C63.5351 378.563 62.6061 379.212 62.1631 380.182C62.0081 380.529 61.9301 380.891 61.9131 381.249L58.5691 382.508L56.5381 375.149ZM60.6751 389.705C60.0191 389.955 59.2871 389.623 59.0411 388.968C58.7931 388.311 59.1251 387.579 59.7801 387.33L59.8871 387.293L59.0981 384.434L62.5121 383.149C62.7941 383.523 63.1611 383.843 63.6181 384.05L69.1011 386.534L60.6751 389.705ZM86.1461 389.657C86.7861 389.943 87.0661 390.698 86.7781 391.335C86.4911 391.974 85.7391 392.257 85.1011 391.97L64.3031 382.543C63.6671 382.254 63.3841 381.505 63.6711 380.865C63.9621 380.227 64.7141 379.942 65.3521 380.231L65.4561 380.28L66.9201 377.703L87.0151 386.806L86.0411 389.608L86.1461 389.657ZM90.2251 377.58H90.2271L87.6711 384.924L67.9031 375.969L71.6711 369.325L68.6191 357.71C68.2061 356.147 69.1411 354.546 70.7031 354.138C72.2661 353.724 73.8681 354.66 74.2781 356.223L75.5061 360.896L80.6401 349.564C81.2191 348.289 82.7211 347.721 83.9971 348.3C85.2691 348.876 85.8341 350.372 85.2661 351.647L86.3051 349.353C86.3061 349.35 86.3061 349.347 86.3061 349.347C86.8841 348.072 88.3901 347.506 89.6641 348.084C90.9421 348.661 91.5061 350.163 90.9291 351.439L90.4091 352.589C90.9891 351.318 92.4881 350.755 93.7631 351.333C95.0381 351.909 95.6051 353.413 95.0271 354.688H95.0301L93.4581 358.151C94.0391 356.878 95.5411 356.313 96.8151 356.888C98.0901 357.469 98.6551 358.971 98.0771 360.248L90.2251 377.58Z" fill="#F5F5F5"/>
<path d="M378.492 295.34C401.688 295.34 420.492 276.536 420.492 253.34C420.492 230.144 401.688 211.34 378.492 211.34C355.296 211.34 336.492 230.144 336.492 253.34C336.492 276.536 355.296 295.34 378.492 295.34Z" fill="#0A88A5"/>
<path d="M378.489 216.592C358.195 216.592 341.742 233.045 341.742 253.342C341.742 273.636 358.195 290.09 378.489 290.09C398.788 290.09 415.242 273.636 415.242 253.342C415.242 233.045 398.788 216.592 378.489 216.592ZM356.159 253.942C360.513 251.962 363.291 246.867 362.629 241.397L361.415 229.696L365.33 229.146L370.873 259.252H356.159V253.942ZM378.489 274.032C378.489 276.48 376.725 278.466 374.55 278.466L360.101 276.989C357.923 276.989 356.16 275.004 356.16 272.555V269.595H378.49L378.489 274.032ZM378.489 266.641H356.159V262.207H378.489V266.641ZM378.489 259.252H373.969L368.346 228.72L371.924 228.216L378.488 244.472V259.252H378.489ZM385.059 228.216L388.637 228.72L383.012 259.252H380.145V244.152L379.382 242.265L385.059 228.216ZM400.82 272.556C400.82 275.004 399.058 276.99 396.881 276.99L382.434 278.467C381.244 278.467 380.192 277.865 379.47 276.931C379.901 276.068 380.145 275.081 380.145 274.034V269.598H400.821V272.556H400.82ZM400.82 266.641H380.144V262.207H400.82V266.641ZM400.82 259.252H386.106L391.653 229.146L395.568 229.696L394.352 241.397C393.688 246.867 396.47 251.961 400.82 253.942V259.252Z" fill="#F5F5F5"/>
<path opacity="0.15" d="M354.662 416.77C354.662 424.433 287.141 430.644 203.847 430.644C120.553 430.644 53.032 424.433 53.032 416.77C53.032 409.109 120.553 402.898 203.847 402.898C287.141 402.897 354.662 409.108 354.662 416.77Z" fill="url(#paint0_radial_85_1500)"/>
<path opacity="0.3" d="M411 416.77C411 424.433 328.242 430.644 226.152 430.644C124.065 430.644 41.3069 424.433 41.3069 416.77C41.3069 409.109 124.066 402.898 226.152 402.898C328.242 402.897 411 409.108 411 416.77Z" fill="url(#paint1_radial_85_1500)"/>
<path d="M238.344 201.47C238.344 210.399 230.84 204.703 224.905 204.703C218.967 204.703 211.467 210.399 211.467 201.47C211.467 192.541 218.968 133.564 224.905 133.564C230.84 133.564 238.344 192.541 238.344 201.47Z" fill="#681E1E"/>
<path d="M175.264 276.82H162.175C162.175 238.605 182.532 209.941 190.27 205.495L196.79 216.844L196.918 216.764C193.095 219.466 175.264 243.725 175.264 276.82Z" fill="#FFCC80"/>
<path opacity="0.05" d="M196.789 216.845L190.269 205.496C190.185 205.544 190.091 205.611 190.004 205.665L195.94 215.997L196.068 215.917C192.245 218.618 174.414 242.877 174.414 275.973H162.189C162.186 276.256 162.174 276.536 162.174 276.821H175.263C175.263 243.725 193.094 219.467 196.916 216.766L196.789 216.845Z" fill="#212121"/>
<path d="M158.729 289.866C158.436 297.58 162.164 304.041 167.049 304.284C180.328 304.948 176.139 298.469 176.434 290.754C176.728 283.039 173.002 276.58 168.115 276.335C159.86 275.921 159.262 275.891 158.729 289.866Z" fill="#FF8F00"/>
<path d="M173.16 287.237C176.119 291.708 179.701 294.303 181.164 293.028C182.625 291.756 181.41 287.095 178.453 282.622C175.497 278.147 171.915 275.55 170.45 276.824C168.987 278.1 170.199 282.759 173.16 287.237Z" fill="#FF8F00"/>
<path d="M177.392 269.275C177.644 272.857 175.997 279.96 175.997 279.96L160.234 281.031C160.234 281.031 158.387 270.818 159.568 267.804C162.253 268.923 174.109 270.438 177.392 269.275Z" fill="#FF8F00"/>
<path opacity="0.5" d="M178.453 282.622C177.689 281.466 176.884 280.441 176.084 279.57C176.417 278.054 177.608 272.363 177.392 269.275C177.16 269.357 176.875 269.423 176.565 269.479C176.518 272.665 175.535 277.365 175.236 278.722C176.036 279.593 176.842 280.617 177.606 281.773C180.562 286.248 181.778 290.907 180.317 292.179C179.374 293.001 177.547 292.2 175.578 290.339C175.446 297.861 179.232 304.086 166.202 303.436C164.753 303.363 163.41 302.733 162.239 301.696C163.587 303.245 165.238 304.193 167.05 304.284C180.079 304.935 176.294 298.71 176.426 291.187C178.396 293.047 180.222 293.849 181.164 293.028C182.625 291.756 181.41 287.096 178.453 282.622Z" fill="#212121"/>
<path d="M287.631 276.82H274.545C274.545 243.722 256.713 219.465 252.893 216.765L259.539 205.495C267.275 209.94 287.631 238.602 287.631 276.82Z" fill="#FFCC80"/>
<path opacity="0.05" d="M259.539 205.496L259.053 206.322C267.5 212.74 285.936 240.442 285.936 276.821H287.631C287.631 238.602 267.275 209.94 259.539 205.496Z" fill="#212121"/>
<path d="M291.082 289.866C291.375 297.58 287.648 304.041 282.762 304.284C269.481 304.948 273.668 298.469 273.377 290.754C273.084 283.039 276.807 276.58 281.693 276.335C289.951 275.921 290.551 275.891 291.082 289.866Z" fill="#FF8F00"/>
<path d="M276.65 287.237C273.691 291.708 270.107 294.303 268.646 293.028C267.185 291.756 268.4 287.095 271.359 282.622C274.312 278.147 277.898 275.55 279.359 276.824C280.82 278.1 279.609 282.759 276.65 287.237Z" fill="#FF8F00"/>
<path d="M272.42 269.275C272.166 272.857 273.813 279.96 273.813 279.96L289.575 281.031C289.575 281.031 291.425 270.818 290.243 267.804C287.557 268.923 275.699 270.438 272.42 269.275Z" fill="#FF8F00"/>
<path opacity="0.5" d="M291.082 289.866C290.867 284.259 290.637 280.93 289.91 278.952C290.379 275.807 291.088 269.964 290.242 267.805C289.92 267.94 289.461 268.078 288.906 268.219C289.062 270.924 288.57 274.865 288.215 277.256C288.94 279.235 289.172 282.563 289.385 288.169C289.678 295.884 285.951 302.345 281.065 302.588C277.358 302.774 275.016 302.4 273.553 301.601C274.533 303.516 277.004 304.573 282.762 304.285C287.648 304.041 291.375 297.58 291.082 289.866ZM268.646 293.028C269.287 293.586 270.339 293.381 271.564 292.617C272.726 291.787 273.752 291.179 273.646 289.96C272.287 291.246 269.044 291.539 268.064 291.628C268.127 292.241 268.309 292.733 268.646 293.028Z" fill="#212121"/>
<path d="M250.77 396.799H236.662L227.256 292.391L262.525 285.863L250.77 396.799Z" fill="#184054"/>
<path d="M199.038 396.799H213.145L222.554 292.391L187.282 285.863L199.038 396.799Z" fill="#184054"/>
<path d="M234.309 318.494L227.924 314.721H221.885L215.497 318.494V282.602H234.309V318.494Z" fill="#184054"/>
<path opacity="0.4" d="M258.697 286.571L247.377 393.406H236.356L236.663 396.798H250.77L262.526 285.863L258.697 286.571ZM227.256 311.328H218.492L217.073 312.166L209.752 393.406H198.679L199.038 396.798H213.144L220.465 315.558L221.884 314.72H227.923L229.341 315.558L227.256 311.328Z" fill="#212121"/>
<path d="M188.263 249.977C188.263 201.471 204.67 188.536 224.907 188.536C245.145 188.536 261.548 201.471 261.548 249.977H188.263Z" fill="#153D51"/>
<path d="M259.103 233.805C273.759 233.805 276.205 220.874 276.205 217.64C276.205 214.407 268.875 201.471 251.775 195.003C234.675 188.536 249.332 220.873 249.332 220.873L259.103 233.805Z" fill="#153D51"/>
<path d="M190.705 233.805C176.049 233.805 173.607 220.874 173.607 217.64C173.607 214.407 180.932 201.471 198.034 195.003C215.133 188.536 200.476 220.873 200.476 220.873L190.705 233.805Z" fill="#153D51"/>
<path d="M266.432 212.788C266.432 226.183 247.838 237.039 224.906 237.039C201.971 237.039 183.378 226.183 183.378 212.788C183.378 199.392 201.972 188.535 224.906 188.535C247.838 188.535 266.432 199.392 266.432 212.788Z" fill="#153D51"/>
<path d="M261.564 245.089C250.621 239.654 248.267 221.678 253.287 196.725C253.439 195.964 253.592 195.225 253.748 194.473L238.232 188.536L224.905 224.486V287.406C224.905 292.365 228.064 296.393 231.959 296.393L257.824 293.396C261.719 293.396 264.881 289.371 264.881 284.407L262.418 246.723C262.254 245.816 262.703 245.652 261.564 245.089Z" fill="#F57F17"/>
<path d="M262.418 246.723C262.254 245.821 262.697 245.655 261.576 245.096L262.558 282.083C262.558 287.048 259.396 291.073 255.501 291.073L229.636 294.07C228.532 294.07 227.501 293.718 226.572 293.142C227.867 295.112 229.785 296.392 231.959 296.392L257.824 293.395C261.719 293.395 264.881 289.37 264.881 284.406L262.418 246.723ZM256.453 240.909C250.017 232.885 249.18 217.146 253.287 196.724C253.439 195.963 253.592 195.224 253.748 194.472L251.152 193.479C251.089 193.786 251.027 194.09 250.963 194.401C246.41 217.051 247.951 233.917 256.453 240.909Z" fill="#E26910"/>
<path d="M263.301 260.44H224.905V254.447H262.928L263.301 260.44Z" fill="#212121"/>
<path d="M264.291 275.419H224.905V269.428H263.895L264.291 275.419Z" fill="#212121"/>
<path d="M247.604 192.122L235.936 254.447L235.369 257.442L230.781 256.065L231.088 254.447L244.494 190.931L247.604 192.122Z" fill="#212121"/>
<path d="M188.247 245.089C199.189 239.654 201.541 221.678 196.523 196.725C196.37 195.964 196.215 195.225 196.063 194.473L211.576 188.536L224.905 224.486V287.406C224.905 292.365 221.745 296.393 217.849 296.393L191.983 293.396C188.087 293.396 184.93 289.371 184.93 284.407L187.392 246.723C187.559 245.816 187.107 245.652 188.247 245.089Z" fill="#F57F17"/>
<path d="M211.576 188.535L210.641 188.893L223.208 222.789V285.71C223.208 290.667 220.048 294.696 216.152 294.696L190.286 291.699C189.02 291.699 187.85 291.24 186.822 290.497C188.11 292.269 189.937 293.395 191.982 293.395L217.848 296.392C221.744 296.392 224.904 292.364 224.904 287.405V224.485L211.576 188.535Z" fill="#E26910"/>
<path d="M186.506 260.44H224.905V254.447H186.882L186.506 260.44Z" fill="#212121"/>
<path d="M185.519 275.419H224.905V269.428H185.917L185.519 275.419Z" fill="#212121"/>
<path d="M202.274 192.094L213.877 254.447L214.439 257.442L219.026 256.065L218.722 254.447L205.317 190.931L202.274 192.094Z" fill="#212121"/>
<path d="M226.08 285.908C226.08 286.735 225.556 287.405 224.906 287.405C224.256 287.405 223.729 286.735 223.729 285.908V225.986C223.729 225.159 224.256 224.487 224.906 224.487C225.555 224.487 226.08 225.159 226.08 225.986V285.908Z" fill="#212121"/>
<path d="M226.08 227.482H223.727L221.377 236.47L222.551 239.466H227.256L228.432 236.47L226.08 227.482ZM224.904 238.083C223.886 238.083 223.062 237.26 223.062 236.242C223.062 235.224 223.886 234.4 224.904 234.4C225.921 234.4 226.746 235.224 226.746 236.242C226.746 237.26 225.921 238.083 224.904 238.083Z" fill="#E0E0E0"/>
<path d="M237.561 189.772C235.711 193.638 230.762 196.404 224.906 196.404C219.048 196.404 214.099 193.638 212.249 189.772C212.552 187.208 212.888 184.375 213.291 181.376C215.615 178.41 219.924 176.411 224.906 176.411C229.889 176.411 234.196 178.41 236.52 181.376C236.924 184.375 237.26 187.208 237.561 189.772Z" fill="#FFB74D"/>
<path d="M246.566 159.576C246.566 175.682 236.867 193.887 224.905 193.887C212.939 193.887 203.241 175.682 203.241 159.576C203.241 143.469 212.939 135.559 224.905 135.559C236.867 135.559 246.566 143.468 246.566 159.576Z" fill="#FFCC80"/>
<path d="M247.01 165.645C246.485 169.733 247.487 173.2 245.237 172.961C242.991 172.723 241.592 169.211 242.118 165.122C242.645 161.034 244.899 157.913 247.149 158.151C249.4 158.393 247.539 161.553 247.01 165.645Z" fill="#FFCC80"/>
<path d="M202.8 165.645C203.325 169.733 202.319 173.2 204.573 172.961C206.821 172.723 208.22 169.211 207.692 165.122C207.164 161.034 204.911 157.913 202.661 158.151C200.408 158.393 202.271 161.553 202.8 165.645Z" fill="#FFCC80"/>
<path d="M237.133 180.071C237.133 186.823 231.66 191.317 224.905 191.317C218.151 191.317 212.676 186.823 212.676 180.071C212.676 175.929 215.438 171.608 218.702 168.887C220.76 167.174 221.638 164.724 224.904 164.724C228.26 164.724 229.051 167.176 231.112 168.89C234.373 171.611 237.133 175.931 237.133 180.071Z" fill="#F5F5F5"/>
<path d="M216.571 173.058C216.372 173.058 216.171 172.987 216.01 172.842L202.687 160.764C202.346 160.455 202.321 159.93 202.63 159.588C202.936 159.249 203.466 159.222 203.807 159.532L217.13 171.607C217.471 171.916 217.496 172.444 217.188 172.783C217.023 172.965 216.797 173.058 216.571 173.058Z" fill="#F5F5F5"/>
<path d="M233.236 173.058C233.017 173.058 232.791 172.969 232.629 172.793C232.318 172.458 232.33 171.931 232.668 171.615L245.574 159.539C245.912 159.223 246.439 159.242 246.752 159.578C247.07 159.915 247.051 160.441 246.713 160.756L233.807 172.833C233.645 172.983 233.443 173.058 233.236 173.058Z" fill="#F5F5F5"/>
<path d="M214.907 186.388C214.693 186.388 214.48 186.307 214.318 186.144L205.984 177.811C205.657 177.484 205.657 176.959 205.982 176.633C206.307 176.304 206.836 176.306 207.16 176.632L215.496 184.965C215.821 185.292 215.821 185.818 215.497 186.143C215.334 186.307 215.12 186.388 214.907 186.388Z" fill="#F5F5F5"/>
<path d="M234.9 186.388C234.689 186.388 234.478 186.307 234.316 186.144C233.988 185.817 233.988 185.291 234.316 184.964L242.644 176.631C242.974 176.305 243.498 176.305 243.822 176.631C244.148 176.958 244.148 177.483 243.822 177.81L235.494 186.143C235.33 186.307 235.115 186.388 234.9 186.388Z" fill="#F5F5F5"/>
<path d="M231.568 173.054C231.568 173.514 231.25 173.889 230.736 173.889C229.902 173.889 226.57 170.553 224.905 170.555C223.238 170.555 219.904 173.889 219.071 173.889C218.61 173.889 218.239 173.514 218.239 173.054C218.239 172.594 218.535 172.221 219.071 172.221C219.904 172.221 221.571 168.889 224.905 168.888C228.236 168.888 229.902 172.221 230.736 172.221C231.197 172.221 231.568 172.594 231.568 173.054Z" fill="#757575"/>
<path d="M229.721 178.897C229.721 179.206 229.516 179.465 229.266 179.473C226.364 179.56 223.447 179.56 220.544 179.473C220.292 179.465 220.09 179.205 220.09 178.897C220.09 178.587 220.295 178.336 220.547 178.335C223.452 178.335 226.358 178.335 229.264 178.335C229.516 178.336 229.719 178.587 229.721 178.897Z" fill="#BDBDBD"/>
<path d="M230.672 182.261C230.672 182.561 230.432 182.845 230.133 182.89C226.68 183.401 223.129 183.401 219.676 182.89C219.379 182.845 219.137 182.56 219.137 182.261C219.137 181.961 219.38 181.748 219.678 181.781C223.138 182.168 226.672 182.167 230.131 181.781C230.432 181.749 230.672 181.961 230.672 182.261Z" fill="#BDBDBD"/>
<path d="M230.174 185.771C230.174 186.076 229.955 186.383 229.684 186.448C226.541 187.196 223.269 187.195 220.126 186.448C219.855 186.383 219.636 186.076 219.636 185.771C219.636 185.466 219.857 185.269 220.128 185.323C223.275 185.967 226.535 185.967 229.682 185.323C229.953 185.269 230.174 185.467 230.174 185.771Z" fill="#BDBDBD"/>
<path d="M243.238 163.925C243.238 177.871 228.236 168.573 224.903 168.573C221.569 168.573 206.571 177.834 206.571 163.889C206.571 153.889 206.571 155.556 224.903 155.556C243.238 155.556 243.238 153.89 243.238 163.925Z" fill="#263238"/>
<path d="M246.568 156.795C246.568 157.95 245.822 158.89 244.904 158.89H204.909C203.989 158.89 203.241 157.951 203.241 156.795C203.241 155.637 203.989 154.698 204.909 154.698H244.904C245.822 154.698 246.568 155.637 246.568 156.795Z" fill="#263238"/>
<path d="M243.238 163.89C244.156 163.89 244.904 160.161 244.904 155.557H241.568C241.568 160.161 242.313 163.89 243.238 163.89Z" fill="#263238"/>
<path d="M206.571 163.89C207.494 163.89 208.243 160.161 208.243 155.557H204.907C204.907 160.161 205.652 163.89 206.571 163.89Z" fill="#263238"/>
<path d="M223.653 162.221V158.888L223.237 158.055C220.604 158.055 220.015 158.023 218.079 157.993C216.652 157.971 215.403 157.951 214.308 157.951C210.454 157.951 209.622 158.265 209.469 158.449C209.072 158.929 209.072 161.565 209.072 163.89C209.072 165.979 209.459 167.49 210.195 168.26C210.39 168.467 210.982 169.09 212.76 169.09C215.094 169.09 218.027 168.066 220.381 167.245C222.326 166.565 222.82 166.075 222.82 166.075L223.653 162.221Z" fill="#BBDEFB"/>
<path d="M216.362 165.093C215.328 165.093 214.492 164.389 214.492 163.52C214.492 162.651 215.328 161.947 216.362 161.947C217.395 161.947 218.234 162.651 218.234 163.52C218.234 164.389 217.395 165.093 216.362 165.093Z" fill="#90CAF9"/>
<path d="M240.336 158.454C240.182 158.266 239.346 157.953 235.481 157.953C234.387 157.953 233.139 157.972 231.71 157.994C229.778 158.024 229.194 158.056 226.571 158.056L226.155 158.889V162.222L226.987 166.075C226.987 166.075 227.487 166.568 229.44 167.253C231.797 168.08 234.731 169.11 237.067 169.11C238.528 169.11 240.735 169.11 240.735 163.922C240.734 161.468 240.734 158.936 240.336 158.454Z" fill="#BBDEFB"/>
<path d="M233.443 165.104C232.41 165.104 231.574 164.4 231.574 163.531C231.574 162.662 232.41 161.958 233.443 161.958C234.478 161.958 235.314 162.662 235.314 163.531C235.314 164.399 234.479 165.104 233.443 165.104Z" fill="#90CAF9"/>
<path d="M224.905 132.228C237.084 132.228 246.959 143.419 246.959 157.225H249.902C249.902 141.578 238.709 128.894 224.905 128.894C211.097 128.894 199.907 141.578 199.907 157.225H202.848C202.848 143.419 212.723 132.228 224.905 132.228Z" fill="#FF8F00"/>
<path d="M205.27 171.777C205.331 172.86 204.501 173.793 203.415 173.857C202.33 173.918 201.397 173.088 201.336 172.003L200.32 154.306C200.258 153.219 201.088 152.287 202.174 152.225C203.261 152.164 204.191 152.995 204.255 154.079L205.27 171.777Z" fill="#212121"/>
<path d="M201.338 172.003C198.078 172.189 195.21 168.381 194.932 163.494C194.65 158.605 197.066 154.492 200.323 154.306L201.338 172.003Z" fill="#FF8F00"/>
<path opacity="0.1" d="M198.494 171.098C199.885 168.248 200.683 160.784 200.495 157.29L201.344 171.997C200.343 172.048 199.358 171.726 198.494 171.098Z" fill="#212121"/>
<path d="M244.539 171.777C244.476 172.86 245.307 173.793 246.393 173.857C247.477 173.918 248.411 173.088 248.475 172.003L249.485 154.306C249.551 153.219 248.721 152.287 247.635 152.225C246.551 152.164 245.619 152.995 245.555 154.079L244.539 171.777Z" fill="#212121"/>
<path d="M248.471 172.003C251.731 172.189 254.596 168.381 254.879 163.494C255.16 158.605 252.746 154.492 249.484 154.306L248.471 172.003Z" fill="#FF8F00"/>
<path opacity="0.1" d="M254.895 162.599C254.895 162.887 254.895 163.193 254.879 163.498C254.59 168.383 251.723 172.183 248.465 171.996L248.582 170.028C252.482 169.757 254.133 164.805 254.895 162.599Z" fill="#212121"/>
<path d="M246.701 152.083C245.683 152.083 238.695 154.305 224.905 154.305C211.114 154.305 204.125 152.083 203.091 152.083C198.629 152.083 196.424 151.269 201.225 147.282C202.532 141.227 205.449 136.375 209.623 133.05C209.182 132.219 209.453 131.184 210.284 130.726L213.304 128.962C214.135 128.487 215.203 128.776 215.695 129.607L215.713 129.658C215.747 129.641 215.781 129.641 215.816 129.624C217.562 128.979 219.428 128.538 221.413 128.301V128.081C221.413 127.996 221.413 127.928 221.43 127.843C221.549 126.995 222.279 126.333 223.16 126.333H226.654C227.619 126.333 228.4 127.113 228.4 128.081V128.301C228.418 128.301 228.451 128.301 228.468 128.318C230.47 128.556 232.335 128.996 234.099 129.658L234.117 129.607C234.117 129.59 234.135 129.59 234.152 129.573C234.627 128.759 235.695 128.487 236.509 128.962L239.529 130.726C240.361 131.184 240.631 132.219 240.189 133.05C244.363 136.375 247.281 141.227 248.585 147.282C253.385 151.268 251.182 152.083 246.701 152.083Z" fill="#F57F17"/>
<path d="M234.15 129.573L233.216 138.377C233.062 139.971 231.638 141.125 230.044 140.955C228.567 140.803 227.464 139.547 227.464 138.088C227.464 137.986 227.464 137.884 227.482 137.782L228.466 128.317C230.468 128.555 232.333 128.995 234.097 129.657L234.115 129.606C234.115 129.589 234.133 129.589 234.15 129.573Z" fill="#E26910"/>
<path d="M222.479 137.782C222.496 137.884 222.496 137.969 222.496 138.071C222.496 139.531 221.394 140.802 219.9 140.955C218.306 141.125 216.881 139.971 216.729 138.377L215.813 129.624C217.559 128.979 219.425 128.538 221.41 128.301L222.479 137.782Z" fill="#E26910"/>
<path d="M248.584 147.282C232.658 151.743 228.822 150.437 224.905 150.437C229.722 149.182 248.431 149.657 245.14 138.631C246.719 141.141 247.889 144.042 248.584 147.282Z" fill="#E26910"/>
<path d="M271.027 413.717C271.017 413.577 271.062 413.379 271.177 413.153C271.384 412.737 271.554 411.715 271.554 410.883C271.554 410.049 271.21 409.028 270.798 408.611C270.382 408.194 269.392 407.637 268.605 407.374L266.933 406.817C266.142 406.553 264.824 406.225 264.003 406.091L257.901 405.072C257.079 404.936 255.926 404.342 255.335 403.755L252.935 401.353C252.347 400.762 251.951 399.602 252.054 398.778L253.195 389.665C253.297 388.839 253.441 387.485 253.519 386.655L254.41 376.805H232.658L233.553 386.655C233.631 387.485 233.803 388.839 233.942 389.659L234.96 395.758C235.097 396.578 235.208 397.932 235.208 398.765C235.208 399.598 234.993 400.925 234.726 401.719L234.173 403.385C233.905 404.179 233.693 405.507 233.693 406.34V409.366C233.693 410.198 233.693 411.223 233.693 411.64C233.693 412.056 233.865 412.737 234.072 413.153C234.197 413.402 234.238 413.612 234.213 413.752C239.494 412.874 258.646 414.352 271.027 413.717Z" fill="#DEDEDE"/>
<path opacity="0.5" d="M270.799 408.611C270.383 408.194 269.393 407.637 268.606 407.374L266.934 406.817C266.143 406.553 264.825 406.225 264.004 406.091L257.902 405.072C257.08 404.936 255.927 404.342 255.336 403.755L252.936 401.353C252.348 400.762 251.952 399.602 252.055 398.778L253.196 389.665C253.298 388.839 253.442 387.485 253.52 386.655L254.411 376.805H252.716L251.825 386.655C251.747 387.485 251.6 388.839 251.499 389.665L250.36 398.778C250.255 399.602 250.653 400.762 251.239 401.353L253.639 403.755C254.233 404.342 255.383 404.937 256.207 405.072L262.309 406.091C263.127 406.225 264.446 406.553 265.237 406.817L266.911 407.374C267.698 407.638 268.688 408.194 269.104 408.611C269.516 409.027 269.858 410.049 269.858 410.883C269.858 411.716 269.688 412.737 269.481 413.153C269.366 413.379 269.323 413.577 269.333 413.717C267.241 413.824 264.948 413.867 262.571 413.876C265.559 413.886 268.444 413.85 271.028 413.717C271.018 413.577 271.063 413.379 271.178 413.153C271.385 412.737 271.555 411.715 271.555 410.883C271.555 410.049 271.211 409.027 270.799 408.611Z" fill="#212121"/>
<path d="M271.178 413.743C271.082 413.743 271.035 413.665 271.028 413.548C258.647 414.183 239.495 412.704 234.212 413.583C234.196 413.677 234.155 413.743 234.071 413.743C233.864 413.743 233.692 414.253 233.692 414.878C233.692 415.503 233.776 416.184 233.881 416.396C233.983 416.603 234.752 416.772 235.584 416.772H242.779C243.611 416.772 244.291 416.43 244.291 416.015C244.291 415.601 244.975 415.256 245.809 415.256H247.321C248.155 415.256 249.18 415.601 249.592 416.015C250.01 416.43 251.033 416.772 251.867 416.772H269.283C270.115 416.772 270.969 416.603 271.178 416.396C271.385 416.187 271.555 415.503 271.555 414.878C271.555 414.253 271.385 413.743 271.178 413.743Z" fill="#212121"/>
<path d="M178.782 413.717C178.792 413.577 178.747 413.379 178.633 413.153C178.426 412.737 178.255 411.715 178.255 410.883C178.255 410.049 178.599 409.028 179.011 408.611C179.427 408.194 180.417 407.637 181.204 407.374L182.877 406.817C183.667 406.553 184.985 406.225 185.806 406.091L191.908 405.072C192.731 404.936 193.883 404.342 194.475 403.755L196.875 401.353C197.461 400.762 197.858 399.602 197.754 398.778L196.614 389.665C196.513 388.839 196.368 387.485 196.29 386.655L195.398 376.805H217.15L216.255 386.655C216.178 387.485 216.005 388.839 215.867 389.659L214.848 395.758C214.712 396.578 214.601 397.932 214.601 398.765C214.601 399.598 214.817 400.925 215.084 401.719L215.638 403.385C215.905 404.179 216.118 405.507 216.118 406.34V409.366C216.118 410.198 216.118 411.223 216.118 411.64C216.118 412.056 215.945 412.737 215.738 413.153C215.614 413.402 215.573 413.612 215.597 413.752C210.315 412.874 191.163 414.352 178.782 413.717Z" fill="#DEDEDE"/>
<path opacity="0.5" d="M215.868 389.659C216.006 388.839 216.179 387.485 216.256 386.655L217.151 376.805H215.455L214.56 386.655C214.483 387.485 214.31 388.839 214.172 389.659L213.153 395.758C213.017 396.578 212.906 397.932 212.906 398.765C212.906 399.598 213.122 400.925 213.388 401.719L213.942 403.385C214.209 404.179 214.422 405.507 214.422 406.34V411.641C214.422 412.057 214.249 412.738 214.042 413.154C213.959 413.32 213.926 413.459 213.911 413.58C214.556 413.625 215.143 413.678 215.597 413.753C215.573 413.613 215.614 413.403 215.738 413.154C215.945 412.738 216.118 412.057 216.118 411.641V406.34C216.118 405.507 215.904 404.179 215.638 403.385L215.084 401.719C214.817 400.925 214.601 399.598 214.601 398.765C214.601 397.932 214.712 396.579 214.848 395.758L215.868 389.659Z" fill="#212121"/>
<path d="M178.633 413.743C178.728 413.743 178.774 413.665 178.782 413.548C191.163 414.183 210.315 412.704 215.598 413.583C215.613 413.677 215.655 413.743 215.739 413.743C215.946 413.743 216.119 414.253 216.119 414.878C216.119 415.503 216.034 416.184 215.929 416.396C215.827 416.603 215.059 416.772 214.226 416.772H207.032C206.198 416.772 205.519 416.43 205.519 416.015C205.519 415.601 204.834 415.256 204.001 415.256H202.488C201.655 415.256 200.63 415.601 200.217 416.015C199.799 416.43 198.776 416.772 197.943 416.772H180.526C179.694 416.772 178.841 416.603 178.632 416.396C178.425 416.187 178.254 415.503 178.254 414.878C178.254 414.253 178.426 413.743 178.633 413.743Z" fill="#212121"/>
<defs>
<radialGradient id="paint0_radial_85_1500" cx="0" cy="0" r="1" gradientUnits="userSpaceOnUse" gradientTransform="translate(203.847 416.771) scale(130.531 16.7601)">
<stop/>
<stop offset="0.0978" stop-color="#2D2D2D"/>
<stop offset="0.2317" stop-color="#646464"/>
<stop offset="0.3668" stop-color="#939393"/>
<stop offset="0.5001" stop-color="#BABABA"/>
<stop offset="0.6312" stop-color="#D8D8D8"/>
<stop offset="0.7596" stop-color="#EEEEEE"/>
<stop offset="0.884" stop-color="#FBFBFB"/>
<stop offset="1" stop-color="white"/>
</radialGradient>
<radialGradient id="paint1_radial_85_1500" cx="0" cy="0" r="1" gradientUnits="userSpaceOnUse" gradientTransform="translate(226.153 416.771) scale(159.982 16.7606)">
<stop offset="0.3316"/>
<stop offset="0.3434" stop-color="#0D0D0D"/>
<stop offset="0.3928" stop-color="#3F3F3F"/>
<stop offset="0.4458" stop-color="#6D6D6D"/>
<stop offset="0.5013" stop-color="#949494"/>
<stop offset="0.5598" stop-color="#B5B5B5"/>
<stop offset="0.6223" stop-color="#D0D0D0"/>
<stop offset="0.6901" stop-color="#E5E5E5"/>
<stop offset="0.7661" stop-color="#F4F4F4"/>
<stop offset="0.8566" stop-color="#FCFCFC"/>
<stop offset="1" stop-color="white"/>
</radialGradient>
</defs>
</svg>
