<svg width="102" height="148" viewBox="0 0 102 148" fill="none" xmlns="http://www.w3.org/2000/svg">
<path d="M51.732 126.266L31.5307 114.226L45.552 106.657L24.128 104.207C23.5933 104.207 23.068 104.349 22.6053 104.615L0.132 117.59C-0.044 117.691 -0.044 117.945 0.132 118.046L27.8693 134.061C28.048 134.163 28.2507 134.218 28.4573 134.218H36.832L50.9827 142.389C53.096 143.609 55.4933 144.25 57.9333 144.25H61.8827L51.732 126.266Z" fill="#D58718"/>
<path d="M89.0064 124.377C88.6677 123.609 88.2024 122.876 87.6584 122.255C87.2024 121.737 86.6917 121.299 86.1531 120.988L52.0331 101.288C51.0637 100.728 50.1864 100.679 49.5531 101.047L45.9277 103.153L84.9624 131.311L88.5891 129.203C89.2144 128.84 89.6037 128.067 89.6064 126.969C89.6091 126.14 89.3877 125.237 89.0064 124.377Z" fill="#2B2221"/>
<path d="M82.528 123.095L48.4067 103.395C46.4867 102.287 44.9214 103.179 44.916 105.367C44.9094 107.574 46.464 110.267 48.384 111.375L82.5054 131.075C84.4094 132.175 85.9747 131.283 85.9814 129.076C85.9867 126.888 84.432 124.195 82.528 123.095Z" fill="#1D1917"/>
<path d="M59.1982 138.612L79.2102 126.999L79.2156 124.906L59.2036 136.519L59.1982 138.612Z" fill="#1D1917"/>
<path d="M59.2031 136.519L79.2151 124.905L76.9711 121.016L55.7725 132.181L59.2031 136.519Z" fill="#231C1B"/>
<path d="M56.9613 132.63L76.972 121.017L46.804 103.598L26.792 115.211L56.9613 132.63Z" fill="#2B2221"/>
<path d="M26.7917 115.211L26.7783 119.895L59.1983 138.612L59.2037 136.519L56.961 132.63L26.7917 115.211Z" fill="#252727"/>
<path d="M64.1139 141.334L29.9939 121.635C29.4979 121.348 29.0299 120.947 28.6139 120.474C28.1192 119.911 27.6992 119.246 27.3912 118.55C27.0406 117.758 26.8366 116.924 26.8392 116.154C26.8419 115.158 27.1939 114.454 27.7632 114.123L24.1379 116.231C23.5686 116.562 23.2166 117.266 23.2139 118.26C23.2112 119.031 23.4152 119.864 23.7646 120.658C24.0726 121.354 24.4939 122.018 24.9872 122.58C25.4032 123.054 25.8712 123.455 26.3672 123.742L60.4885 143.442C61.3619 143.946 62.1579 143.991 62.7339 143.656L66.3592 141.55C65.7832 141.884 64.9886 141.839 64.1139 141.334Z" fill="#231C1B"/>
<path d="M27.996 116.076L61.964 135.687C63.576 136.618 64.8773 138.876 64.872 140.724C64.8667 142.578 63.5573 143.324 61.9453 142.394L27.9773 122.782C26.3653 121.851 25.064 119.598 25.0694 117.744C25.0747 115.895 26.384 115.146 27.996 116.076Z" fill="#1D1917"/>
<path d="M60.0299 136.128C60.4845 135.864 61.1139 135.901 61.8085 136.303C63.1832 137.097 64.2992 139.025 64.2939 140.609C64.2912 141.395 64.0139 141.948 63.5659 142.208L62.8885 142.603C63.3365 142.343 63.6139 141.789 63.6165 141.003C63.6205 139.419 62.5059 137.491 61.1299 136.696C60.4352 136.296 59.8059 136.259 59.3525 136.523L60.0299 136.128Z" fill="#646783"/>
<path d="M61.1303 136.696C62.5063 137.491 63.621 139.419 63.617 141.003C63.6117 142.587 62.4903 143.223 61.1143 142.429C59.7357 141.633 58.621 139.705 58.625 138.121C58.6303 136.537 59.7517 135.901 61.1303 136.696Z" fill="#8386A7"/>
<path d="M25.6318 116.268C26.0865 116.004 26.7144 116.041 27.4091 116.443C28.7851 117.236 29.8998 119.164 29.8958 120.748C29.8931 121.535 29.6158 122.088 29.1678 122.348L28.4904 122.741C28.9371 122.481 29.2158 121.929 29.2171 121.143C29.2225 119.559 28.1078 117.631 26.7318 116.836C26.0371 116.436 25.4078 116.397 24.9531 116.661L25.6318 116.268Z" fill="#646783"/>
<path d="M26.7319 116.836C28.1079 117.631 29.2226 119.559 29.2172 121.143C29.2132 122.727 28.0906 123.363 26.7159 122.568C25.3372 121.772 24.2226 119.844 24.2266 118.261C24.2306 116.677 25.3532 116.04 26.7319 116.836Z" fill="#8386A7"/>
<path d="M61.3489 141.546L26.5889 121.478V116.051L61.3489 136.119V141.546Z" fill="#9496B9"/>
<path d="M61.9126 141.221L61.3486 141.546V136.121L61.9126 135.794V141.221Z" fill="#C0C2DB"/>
<path d="M61.3489 136.119L26.5889 116.051L27.1529 115.724L61.9129 135.794L61.3489 136.119Z" fill="#201C14"/>
<path d="M66.9902 137.089C66.6515 136.321 66.1862 135.587 65.6408 134.967C65.1862 134.448 64.6755 134.009 64.1368 133.699L30.0155 113.999C29.0475 113.44 28.1702 113.389 27.5368 113.757L23.9102 115.865C24.5435 115.497 25.4222 115.547 26.3902 116.107L60.5102 135.805C61.0488 136.117 61.5595 136.556 62.0155 137.073C62.5595 137.693 63.0248 138.428 63.3648 139.196C63.7448 140.056 63.9662 140.957 63.9635 141.788C63.9608 142.885 63.5715 143.659 62.9462 144.021L66.5728 141.915C67.1968 141.551 67.5862 140.779 67.5902 139.68C67.5915 138.851 67.3702 137.949 66.9902 137.089Z" fill="#2B2221"/>
<path d="M60.4891 143.442L26.3678 123.742C24.6131 122.729 23.2078 120.278 23.2145 118.261C23.2198 116.262 24.6344 115.438 26.3891 116.451L60.5091 136.151C62.2491 137.155 63.6705 139.615 63.6638 141.615C63.6585 143.631 62.2291 144.446 60.4891 143.442ZM60.5104 135.806L26.3904 116.107C24.4704 114.998 22.9051 115.89 22.8985 118.079C22.8931 120.286 24.4478 122.978 26.3678 124.087L60.4878 143.786C62.3931 144.886 63.9585 143.994 63.9638 141.789C63.9705 139.599 62.4158 136.906 60.5104 135.806Z" fill="#1D1917"/>
<path d="M29.3904 113.703C29.3904 113.703 29.3891 113.703 29.3891 113.702L31.2678 112.61L31.2718 112.612L29.3904 113.703Z" fill="#3F2A18"/>
<path d="M45.0733 120.632H41.5093L39.2386 119.321H39.2333L30.016 113.999C29.8026 113.876 29.5933 113.777 29.3906 113.703L31.272 112.612L45.0733 120.632Z" fill="#211A19"/>
<path d="M39.2334 119.321H31.9588L26.3908 116.107C25.8294 115.783 25.2988 115.629 24.8294 115.629C24.8214 115.629 24.8134 115.629 24.8054 115.629C24.8041 115.629 24.8028 115.629 24.8014 115.629C24.7974 115.629 24.7948 115.629 24.7921 115.629C24.7894 115.629 24.7881 115.629 24.7868 115.629C24.7841 115.629 24.7801 115.629 24.7774 115.629C24.7761 115.631 24.7734 115.631 24.7708 115.631C24.7681 115.631 24.7668 115.631 24.7641 115.631C24.7601 115.631 24.7574 115.631 24.7534 115.631C24.7521 115.631 24.7494 115.631 24.7468 115.631C24.7428 115.631 24.7388 115.631 24.7348 115.632C24.7334 115.632 24.7321 115.632 24.7308 115.632C24.7268 115.632 24.7241 115.632 24.7201 115.632C24.7188 115.632 24.7174 115.632 24.7148 115.632C24.7121 115.632 24.7081 115.633 24.7041 115.633C24.7028 115.633 24.7028 115.633 24.7014 115.633C24.6961 115.633 24.6921 115.633 24.6881 115.635C24.6868 115.635 24.6868 115.635 24.6868 115.635C24.4068 115.653 24.1521 115.728 23.9268 115.856L27.5374 113.757C27.5414 113.756 27.5454 113.753 27.5494 113.751C27.8108 113.601 28.1148 113.524 28.4481 113.524C28.7401 113.524 29.0548 113.583 29.3854 113.704L29.3894 113.701C29.3894 113.703 29.3908 113.703 29.3908 113.703C29.5934 113.777 29.8028 113.876 30.0161 113.999L39.2334 119.321Z" fill="#211A19"/>
<path d="M23.9102 115.865L23.9262 115.856C24.1515 115.728 24.4062 115.653 24.6862 115.635C24.4008 115.653 24.1395 115.732 23.9102 115.865Z" fill="#1F1917"/>
<path d="M50.0382 117.478C52.8049 119.084 57.3036 119.084 60.0849 117.479C61.4849 116.671 62.1849 115.608 62.1823 114.548L62.1943 118.891C62.1969 119.951 61.4969 121.012 60.0969 121.822C57.3156 123.427 52.8169 123.427 50.0516 121.82C48.6783 121.022 47.9916 119.978 47.9889 118.931L47.9756 114.59C47.9796 115.635 48.6662 116.68 50.0382 117.478Z" fill="#1D1917"/>
<path d="M50.0713 111.66C52.8553 110.053 57.354 110.053 60.1166 111.659C62.882 113.265 62.8673 115.872 60.0846 117.479C57.3033 119.084 52.8046 119.084 50.038 117.477C47.2753 115.872 47.29 113.265 50.0713 111.66Z" fill="#463924"/>
<path d="M56.4745 137.508L53.7145 135.914C53.4851 135.782 53.2998 135.49 53.2998 135.26C53.2998 135.031 53.4851 134.952 53.7145 135.084L56.4745 136.679C56.7038 136.811 56.8891 137.104 56.8891 137.332C56.8891 137.562 56.7038 137.64 56.4745 137.508Z" fill="#1D1917"/>
<path d="M50.7688 134.213L48.0074 132.62C47.7794 132.487 47.5928 132.195 47.5928 131.965C47.5928 131.736 47.7794 131.657 48.0074 131.791L50.7688 133.384C50.9981 133.516 51.1834 133.809 51.1834 134.039C51.1834 134.267 50.9981 134.345 50.7688 134.213Z" fill="#1D1917"/>
<path d="M39.3567 127.625L36.5953 126.031C36.366 125.899 36.1807 125.606 36.1807 125.377C36.1807 125.149 36.366 125.07 36.5953 125.202L39.3567 126.795C39.586 126.929 39.7713 127.221 39.7713 127.45C39.7713 127.679 39.586 127.758 39.3567 127.625Z" fill="#1D1917"/>
<path d="M33.6503 124.331L30.8903 122.736C30.6609 122.604 30.4756 122.311 30.4756 122.083C30.4756 121.853 30.6609 121.775 30.8903 121.907L33.6503 123.501C33.8796 123.633 34.0649 123.925 34.0649 124.155C34.0649 124.384 33.8796 124.463 33.6503 124.331Z" fill="#1D1917"/>
<path d="M54.946 125.166L18.166 103.93V95.05L54.946 116.286V125.166Z" fill="#D58718"/>
<path d="M75.4116 113.35L54.9463 125.166V116.286L75.4116 104.47V113.35Z" fill="#E5A012"/>
<path d="M54.946 116.286L18.166 95.0501L38.6313 83.2355L75.4113 104.47L54.946 116.286Z" fill="#FBC81C"/>
<path d="M81.6356 110.483L81.4183 110.574L77.2289 108.156C77.1089 108.086 77.0116 107.933 77.0116 107.813V103.288L77.2276 103.194L80.2183 104.905L80.4303 105.188L81.6276 110.42L81.6356 110.483ZM80.8663 104.421C80.7996 104.138 80.6049 103.863 80.3823 103.735L76.3396 101.4C75.9862 101.695 75.7223 101.957 75.3596 102.124L75.0396 102.179L73.7756 105.889L70.2049 104.247C69.9409 104.432 69.6769 104.62 69.4062 104.794V110.029L70.2783 116.128L75.6729 119.424L82.1876 117.409V110.147L80.8663 104.421Z" fill="#1D1917"/>
<path d="M77.4168 120.794L83.6235 117.186L82.3061 115.147L76.0981 118.755L77.4168 120.794Z" fill="#FBD624"/>
<path d="M77.4141 121.801L83.6301 118.281L83.6234 117.186L77.4167 120.794L77.4141 121.801Z" fill="#E5A012"/>
<path d="M75.585 113.649L81.5676 110.171L82.3196 110.606L76.1116 114.214L75.585 113.909V113.649Z" fill="#2B2221"/>
<path d="M76.0981 118.755L82.3061 115.147L82.3195 110.606L76.1115 114.214L76.0981 118.755Z" fill="#E5A012"/>
<path d="M75.8359 101.066C75.6946 100.985 75.5666 100.977 75.4746 101.03L69.2666 104.638C69.3599 104.585 69.4879 104.591 69.6293 104.673L74.1933 107.309L80.4013 103.701L75.8359 101.066Z" fill="#FBC81C"/>
<path d="M74.6769 107.995L80.8849 104.387C80.8169 104.106 80.6235 103.83 80.4009 103.7L74.1929 107.308C74.4155 107.436 74.6089 107.714 74.6769 107.995Z" fill="#FBD624"/>
<path d="M70.8222 111.347V106.862L71.0382 106.769L74.0288 108.479L74.2395 108.763L75.4382 113.995L70.8222 111.347ZM76.0982 118.755L76.1115 114.214L74.6768 107.995C74.6088 107.714 74.4155 107.437 74.1928 107.309L69.6288 104.673C69.3475 104.511 69.1195 104.641 69.1182 104.965L69.1035 117.002L77.4142 121.801L77.4168 120.794L76.0982 118.755Z" fill="#D58718"/>
<path d="M75.0701 108.855L80.9394 105.445L82.1061 110.514L76.2368 113.925L75.0701 108.855ZM80.8848 104.387L74.6768 107.995L76.1114 114.214L82.3194 110.606L80.8848 104.387Z" fill="#FAB71C"/>
<path d="M74.2381 108.761L74.0275 108.477L71.0368 106.768L70.8208 106.86V111.328L75.4368 113.993L74.2381 108.761Z" fill="#1D1917"/>
<mask id="mask0_82_1672" style="mask-type:luminance" maskUnits="userSpaceOnUse" x="77" y="105" width="5" height="6">
<path d="M81.1451 110.416L77.2291 108.156C77.1091 108.087 77.0117 107.933 77.0117 107.813V107.727L80.541 105.676L81.5717 110.173L81.5677 110.171L81.1451 110.416Z" fill="white"/>
</mask>
<g mask="url(#mask0_82_1672)">
<path d="M77.0117 110.416H81.5721V105.676H77.0117V110.416Z" fill="#684E22"/>
</g>
<path d="M76.1036 113.347L75.0703 108.855L77.0116 107.727V107.813C77.0116 107.933 77.109 108.087 77.229 108.156L81.145 110.416L76.1036 113.347ZM82.097 110.477L81.5716 110.173L80.541 105.676L80.9396 105.444L82.097 110.477Z" fill="#271F1D"/>
<path d="M76.2368 113.924L76.1035 113.347L81.1448 110.416L81.5675 110.17L81.5715 110.173L82.0968 110.477L82.1062 110.513L76.2368 113.924Z" fill="#2B2221"/>
<path d="M76.237 113.924L75.0703 108.854L76.1036 113.347L76.237 113.924Z" fill="#684E22"/>
<path d="M57.1329 124.755L71.3729 116.495L69.1129 113.162L54.9502 121.34L57.1329 124.755Z" fill="#FBD624"/>
<path d="M57.1279 126.423L71.3826 118.307L71.3733 116.495L57.1333 124.755L57.1279 126.423Z" fill="#E5A012"/>
<path d="M57.1329 124.755L54.9502 121.34L54.7422 125.044L57.1275 126.423L57.1329 124.755Z" fill="#D58718"/>
<path d="M52.1354 100.93L50.5247 101.86L45.5674 98.9977L47.1794 98.0683L52.1354 100.93Z" fill="#D58718"/>
<path d="M47.1794 98.068L45.5674 98.9973L47.182 99.9307L47.1794 98.068Z" fill="#E5A012"/>
<path d="M76.3187 58.7708L76.1427 58.8055L48.2773 100.561L48.4973 100.689L76.3534 58.9468L76.3187 58.7708Z" fill="#2B2221"/>
<path d="M75.249 58.5791L75.1223 58.4578L72.8623 8.29379L72.9823 8.16045L73.1156 8.28177L75.3756 58.4458L75.2543 58.5791H75.249Z" fill="#2B2221"/>
<path d="M77.5302 57.2617L77.4036 57.1404L75.1436 6.97637L75.2649 6.84304L75.3969 6.96436L77.6582 57.1284L77.5369 57.2617H77.5302Z" fill="#2B2221"/>
<path d="M69.0087 117.876L67.958 118.487L70.614 120.021L71.6647 119.411L69.0087 117.876Z" fill="#FBC81C"/>
<path d="M72.2849 120.148C72.2103 119.98 72.1089 119.82 71.9903 119.686L71.6649 119.411L70.6143 120.02L70.9409 120.295C71.0596 120.431 71.1609 120.591 71.2343 120.759C71.3183 120.948 71.3676 121.148 71.3676 121.334C71.3663 121.571 71.2823 121.738 71.1463 121.816L72.1956 121.206C72.3316 121.127 72.4169 120.96 72.4169 120.724C72.4183 120.539 72.3689 120.339 72.2849 120.148Z" fill="#FBD624"/>
<path d="M70.6145 120.02L67.9584 118.487L67.9531 120.232L70.6104 121.765C71.0238 122.004 71.3665 121.809 71.3678 121.333C71.3691 120.848 71.0291 120.26 70.6145 120.02Z" fill="#D58718"/>
<path d="M71.9903 119.685L70.9409 120.295C71.0596 120.431 71.1609 120.591 71.2343 120.759L72.2849 120.148C72.2103 119.98 72.1089 119.82 71.9903 119.685Z" fill="#FAEE58"/>
<path d="M64.7001 120.365L63.6494 120.975L66.3054 122.509L67.3561 121.898L64.7001 120.365Z" fill="#FBC81C"/>
<path d="M67.9754 122.637C67.9007 122.469 67.7994 122.309 67.682 122.174L67.3554 121.898L66.3047 122.509L66.6314 122.783C66.75 122.918 66.8514 123.079 66.926 123.247C67.01 123.437 67.058 123.637 67.058 123.822C67.058 124.058 66.9727 124.226 66.8367 124.305L67.8874 123.694C68.022 123.615 68.1074 123.449 68.1087 123.211C68.1087 123.027 68.0594 122.826 67.9754 122.637Z" fill="#FBD624"/>
<path d="M66.3049 122.508L63.6489 120.975L63.6436 122.72L66.3009 124.253C66.7142 124.492 67.0569 124.297 67.0582 123.821C67.0596 123.336 66.7195 122.748 66.3049 122.508Z" fill="#D58718"/>
<path d="M67.6825 122.174L66.6318 122.783C66.7505 122.918 66.8518 123.079 66.9265 123.247L67.9758 122.636C67.9012 122.468 67.7998 122.308 67.6825 122.174Z" fill="#FAEE58"/>
<path d="M68.4387 108.495L62.4347 105.028L54.04 109.875L60.0454 113.342V118.4L68.4387 113.554V108.495Z" fill="#FBC81C"/>
<path d="M62.4347 105.029L54.04 109.875L58.4107 112.399L62.424 110.082L63.68 105.749L62.4347 105.029Z" fill="#E5A012"/>
<path d="M62.4345 105.028L62.4238 110.082L68.4385 113.554V108.495L62.4345 105.028Z" fill="#D58718"/>
<path d="M65.5546 111.855L64.2666 112.591V106.273L65.5546 105.537V111.855Z" fill="#E5A012"/>
<path d="M64.877 103.672C65.101 103.977 65.281 104.324 65.3997 104.673C65.4997 104.965 65.5544 105.261 65.5544 105.537L64.2664 106.273C64.2664 105.996 64.2104 105.701 64.1117 105.409C63.993 105.059 63.8117 104.713 63.589 104.408C63.3357 104.061 63.0304 103.768 62.6984 103.579C62.277 103.336 61.8917 103.315 61.6104 103.476L62.8984 102.74C63.1797 102.58 63.565 102.6 63.9877 102.843C64.3184 103.032 64.625 103.327 64.877 103.672Z" fill="#FBD624"/>
<path d="M64.2661 106.273V112.591L61.1475 110.803L61.1488 104.485C61.1488 103.5 61.8488 103.091 62.6981 103.579C63.5661 104.076 64.2661 105.288 64.2661 106.273Z" fill="#D58718"/>
<path d="M65.3995 104.673L64.1115 105.409C63.9929 105.059 63.8115 104.713 63.5889 104.408L64.8769 103.672C65.1009 103.977 65.2809 104.324 65.3995 104.673Z" fill="#FAEE58"/>
<path d="M71.418 91.6987L62.37 106.472L62.2354 106.609L62.8767 106.236L63.0113 106.1L72.0593 91.3267L71.418 91.6987Z" fill="#BB771C"/>
<path d="M72.1385 91.0006L72.1131 90.7286C72.0851 90.6006 72.0545 90.5099 72.0158 90.4206C71.9265 90.2432 71.8451 90.1059 71.7398 89.9832C71.6211 89.8486 71.5118 89.7579 71.4038 89.6939C71.2065 89.5806 71.0131 89.5592 70.8718 89.6419L70.2305 90.0139C70.3718 89.9312 70.5651 89.9526 70.7625 90.0672C70.8758 90.1326 70.9918 90.2299 71.0985 90.3552C71.2038 90.4766 71.2851 90.6166 71.3518 90.7566L71.4651 91.0606C71.4918 91.1966 71.4998 91.2872 71.4971 91.3739L71.4931 91.4486L71.4185 91.6992L72.0598 91.3272L72.1345 91.0766L72.1385 91.0006Z" fill="#FBD624"/>
<path d="M71.0986 90.3548C70.9919 90.2294 70.8759 90.1321 70.7626 90.0667C70.4919 89.9107 70.2279 89.9281 70.0959 90.1481L61.0479 104.921C60.8533 105.232 61.0013 105.832 61.3679 106.265C61.4773 106.392 61.5933 106.489 61.7066 106.556C61.9773 106.712 62.2386 106.693 62.3706 106.472L71.4186 91.6987C71.6133 91.3881 71.4653 90.7814 71.0986 90.3548Z" fill="#D58718"/>
<path d="M71.7398 89.9833L71.0825 90.3366C71.2132 90.4886 71.3065 90.6393 71.3745 90.7939L72.0159 90.4206C71.9479 90.2673 71.8545 90.1166 71.7398 89.9833Z" fill="#FAEE58"/>
<path d="M67.3425 113.887L66.9238 114.126V113.442L67.3425 113.203V113.887Z" fill="#E5A012"/>
<path d="M67.1221 112.597L67.2915 112.923L67.3421 113.203L66.9235 113.441L66.8741 113.161L66.7048 112.836L66.4168 112.568C66.2795 112.489 66.1541 112.483 66.0635 112.535L66.4808 112.296C66.5715 112.244 66.6968 112.251 66.8341 112.329L67.1221 112.597Z" fill="#FBD624"/>
<path d="M66.9234 113.442V114.126L65.9141 113.546V112.862C65.9141 112.543 66.1407 112.41 66.4167 112.569C66.6967 112.73 66.9234 113.122 66.9234 113.442Z" fill="#D58718"/>
<mask id="mask1_82_1672" style="mask-type:luminance" maskUnits="userSpaceOnUse" x="65" y="103" width="9" height="12">
<path d="M72.2371 103.941L71.9558 103.721C71.8091 103.543 71.7531 103.322 71.8304 103.139L71.8678 103.066L65.1824 113.301L65.1451 113.374C65.0678 113.558 65.1238 113.779 65.2705 113.955L65.5518 114.175C65.8571 114.33 66.1878 114.27 66.3304 114.051L73.0171 103.815C72.8731 104.035 72.5438 104.094 72.2371 103.941Z" fill="white"/>
</mask>
<g mask="url(#mask1_82_1672)">
<path d="M72.2371 103.941L71.9558 103.721C71.8091 103.543 71.7531 103.322 71.8304 103.139L71.8678 103.066L65.1824 113.301L65.1451 113.374C65.0678 113.558 65.1238 113.779 65.2705 113.955L65.5518 114.175C65.8571 114.33 66.1878 114.27 66.3304 114.051L73.0171 103.815C72.8731 104.035 72.5438 104.094 72.2371 103.941Z" fill="url(#paint0_linear_82_1672)"/>
</g>
<path d="M72.9222 103.158L72.6462 102.939C72.3102 102.776 71.9422 102.86 71.8302 103.139C71.7528 103.322 71.8088 103.543 71.9555 103.72L72.2368 103.94C72.5728 104.11 72.9382 104.02 73.0528 103.747C73.1275 103.56 73.0702 103.336 72.9222 103.158Z" fill="#362B29"/>
<path d="M77.9663 94.7935L77.7289 94.6562L72.1129 103.195C72.0423 103.352 72.0769 103.487 72.1663 103.595L72.3383 103.728C72.5249 103.823 72.7263 103.787 72.8143 103.652L78.4556 95.0735C78.2943 94.9802 78.1316 94.8935 77.9663 94.7935Z" fill="white"/>
<path d="M65.8597 114.743L65.4424 114.981V114.297L65.8597 114.059V114.743Z" fill="#E5A012"/>
<path d="M65.6397 113.454L65.809 113.779L65.8597 114.059L65.4424 114.298L65.3917 114.018L65.2224 113.693L64.9344 113.425C64.7971 113.346 64.6717 113.339 64.5811 113.391L64.9984 113.153C65.0891 113.101 65.2144 113.107 65.3517 113.186L65.6397 113.454Z" fill="#FBD624"/>
<path d="M65.4423 114.297V114.981L64.4316 114.401V113.717C64.4316 113.399 64.6583 113.265 64.9343 113.424C65.2143 113.584 65.4423 113.977 65.4423 114.297Z" fill="#D58718"/>
<path d="M65.8093 113.779L65.392 114.018L65.2227 113.692L65.64 113.454L65.8093 113.779Z" fill="#FAEE58"/>
<path d="M76.4465 97.8233L80.6931 95.3672L80.6852 98.1446L76.4385 100.601L76.4465 97.8233Z" fill="#E5A012"/>
<path d="M70.8381 89.6779C70.5021 89.4846 70.1981 89.4659 69.9781 89.5939L65.7314 92.0486C65.9514 91.9219 66.2554 91.9392 66.5914 92.1339L76.4461 97.8232L80.6928 95.3672L70.8381 89.6779Z" fill="#FBC81C"/>
<path d="M66.5919 92.1339C65.9252 91.7486 65.3812 92.0553 65.3799 92.8246C65.3772 93.5899 65.9172 94.5259 66.5839 94.9099L76.4386 100.601L76.4466 97.8233L66.5919 92.1339Z" fill="#D58718"/>
<path d="M76.6178 94.4551L75.0071 95.3857L70.0498 92.5244L71.6618 91.5937L76.6178 94.4551Z" fill="#D58718"/>
<path d="M71.6618 91.5934L70.0498 92.5241L71.6645 93.4561L71.6618 91.5934Z" fill="#E5A012"/>
<path d="M66.5024 94.5389L57.453 109.311L57.3184 109.448L57.9597 109.075L58.0944 108.939L67.1437 94.1656L66.5024 94.5389Z" fill="#BB771C"/>
<path d="M67.2218 93.8391L67.1952 93.5671C67.1672 93.4391 67.1378 93.3484 67.0978 93.2604C67.0085 93.0817 66.9272 92.9444 66.8232 92.8217C66.7045 92.6857 66.5952 92.5951 66.4858 92.5337C66.2885 92.4191 66.0952 92.3977 65.9538 92.4804L65.3125 92.8524C65.4538 92.7697 65.6472 92.7911 65.8445 92.9057C65.9592 92.9711 66.0738 93.0684 66.1805 93.1937C66.2858 93.3164 66.3672 93.4551 66.4338 93.5951L66.5472 93.9004C66.5752 94.0351 66.5818 94.1271 66.5805 94.2124L66.5752 94.2871L66.5018 94.5391L67.1432 94.1657L67.2165 93.9151L67.2218 93.8391Z" fill="#FBD624"/>
<path d="M66.1808 93.1936C66.0741 93.0683 65.9594 92.9709 65.8448 92.9056C65.5754 92.7496 65.3114 92.767 65.1794 92.987L56.1301 107.76C55.9368 108.071 56.0848 108.672 56.4501 109.106C56.5594 109.232 56.6754 109.33 56.7901 109.395C57.0608 109.551 57.3208 109.532 57.4528 109.311L66.5021 94.5389C66.6954 94.2283 66.5474 93.6203 66.1808 93.1936Z" fill="#D58718"/>
<path d="M66.8233 92.8215L66.166 93.1762C66.2953 93.3269 66.3887 93.4775 66.4567 93.6309L67.098 93.2602C67.03 93.1056 66.9367 92.9549 66.8233 92.8215Z" fill="#FAEE58"/>
<path d="M57.8018 107.758C58.0245 108.063 58.2058 108.409 58.3245 108.759C58.4231 109.051 58.4792 109.346 58.4792 109.623L57.1911 110.359C57.1911 110.082 57.1352 109.787 57.0365 109.494C56.9178 109.145 56.7365 108.798 56.5138 108.493C56.2605 108.147 55.9538 107.854 55.6231 107.663C55.2005 107.422 54.8152 107.401 54.5352 107.562L55.8231 106.826C56.1045 106.665 56.4898 106.686 56.9125 106.929C57.2432 107.118 57.5485 107.411 57.8018 107.758Z" fill="#FBD624"/>
<path d="M58.3253 108.758L57.0373 109.493C56.9187 109.144 56.7373 108.797 56.5146 108.492L57.8027 107.757C58.0253 108.062 58.2066 108.408 58.3253 108.758Z" fill="#FAEE58"/>
<path d="M58.4794 112.438V109.622L57.1914 110.358V111.694L58.4794 112.438Z" fill="#E5A012"/>
<path d="M57.1919 111.695V110.359C57.1919 109.374 56.4906 108.161 55.6239 107.663C54.7732 107.177 54.0732 107.586 54.0732 108.571V109.895L57.1919 111.695Z" fill="#D58718"/>
<path d="M77.5914 104.376L75.6968 103.281V89.284L77.5914 90.3786V104.376Z" fill="#D58718"/>
<path d="M81.6278 102.045L77.5918 104.376V90.3786L81.6278 88.048V102.045Z" fill="#E5A012"/>
<path d="M77.5914 90.3789L75.6968 89.2842L79.7328 86.9549L81.6274 88.0482L77.5914 90.3789Z" fill="#FBC81C"/>
<path d="M72.5171 90.9178L71.7051 91.3818V90.0512L72.5171 89.5885V90.9178Z" fill="#E5A012"/>
<path d="M72.0899 88.4121C72.2312 88.6041 72.3446 88.8214 72.4193 89.0428C72.4819 89.2268 72.5166 89.4121 72.5166 89.5881L71.7046 90.0508C71.7046 89.8761 71.6699 89.6908 71.6086 89.5068C71.5326 89.2854 71.4192 89.0681 71.2779 88.8761C71.1192 88.6574 70.9259 88.4721 70.7179 88.3521C70.4513 88.2001 70.2086 88.1868 70.0312 88.2881L70.8432 87.8255C71.0206 87.7241 71.2632 87.7361 71.5299 87.8895C71.7379 88.0095 71.9312 88.1934 72.0899 88.4121Z" fill="#FBD624"/>
<path d="M71.7052 90.0512V91.3818L69.7412 90.2552V88.9245C69.7412 88.3045 70.1826 88.0458 70.7186 88.3525C71.2652 88.6672 71.7052 89.4312 71.7052 90.0512Z" fill="#D58718"/>
<path d="M72.4197 89.0428L71.609 89.5068C71.533 89.2855 71.4197 89.0682 71.2783 88.8762L72.0903 88.4122C72.2316 88.6042 72.345 88.8215 72.4197 89.0428Z" fill="#FAEE58"/>
<mask id="mask2_82_1672" style="mask-type:luminance" maskUnits="userSpaceOnUse" x="68" y="75" width="7" height="17">
<path d="M73.873 76.5839C73.373 76.8732 72.5771 76.7732 72.0877 76.3572C71.7944 76.1079 71.6797 75.8039 71.7424 75.5372L68.1344 90.7866C68.0704 91.0532 68.185 91.3572 68.4784 91.6065C68.9677 92.0225 69.765 92.1239 70.265 91.8332C70.4637 91.7172 70.5837 91.5572 70.6264 91.3785L74.2357 76.1279C74.1931 76.3066 74.0717 76.4679 73.873 76.5839Z" fill="white"/>
</mask>
<g mask="url(#mask2_82_1672)">
<path d="M73.873 76.5839C73.373 76.8732 72.5771 76.7732 72.0877 76.3572C71.7944 76.1079 71.6797 75.8039 71.7424 75.5372L68.1344 90.7866C68.0704 91.0532 68.185 91.3572 68.4784 91.6065C68.9677 92.0225 69.765 92.1239 70.265 91.8332C70.4637 91.7172 70.5837 91.5572 70.6264 91.3785L74.2357 76.1279C74.1931 76.3066 74.0717 76.4679 73.873 76.5839Z" fill="url(#paint1_linear_82_1672)"/>
</g>
<path d="M73.8931 75.3088C74.3825 75.7248 74.3678 76.2968 73.8731 76.5848C73.3731 76.8741 72.5771 76.7741 72.0878 76.3581C71.5985 75.9421 71.6065 75.3728 72.1065 75.0821C72.6011 74.7954 73.4038 74.8928 73.8931 75.3088Z" fill="#FBC81C"/>
<path d="M78.3461 57.4349L73.9421 75.9122C73.9128 76.0402 73.8261 76.1549 73.6848 76.2376C73.3274 76.4442 72.7594 76.3722 72.4101 76.0762C72.2008 75.8976 72.1194 75.6816 72.1634 75.4909L76.5674 57.0136C76.5221 57.2042 76.6034 57.4202 76.8128 57.5989C77.1621 57.8949 77.7314 57.9669 78.0874 57.7603C78.2288 57.6776 78.3154 57.5629 78.3461 57.4349Z" fill="white"/>
<path d="M78.8664 57.7181L81.3264 56.2875L81.313 60.9261L78.853 62.3555L78.8664 57.7181Z" fill="#1D1817"/>
<path d="M75.7798 55.9364L78.2411 54.5058L81.3264 56.2871L78.8665 57.7178L75.7798 55.9364Z" fill="#362B29"/>
<path d="M78.8664 57.7181L78.8531 62.3555L73.8584 59.4728L73.8651 57.9181L75.7797 55.9368L78.8664 57.7181Z" fill="#1D1917"/>
<path d="M79.8664 141.685L77.457 140.293V12.1899L79.8664 13.5806V141.685Z" fill="#1D1917"/>
<path d="M87.5022 137.275L79.8662 141.685V13.5806L87.5022 9.17257V137.275Z" fill="#2B2221"/>
<path d="M83.4277 15.6373L83.9411 15.3413V135.219L83.4277 135.515V15.6373Z" fill="#1D1917"/>
<path d="M79.8664 13.5801L77.457 12.1894L85.093 7.78141L87.5024 9.17207L79.8664 13.5801Z" fill="#362B29"/>
<path d="M61.7903 105.087C61.9263 105.166 62.0583 105.325 62.1303 105.511C62.2356 105.786 62.1756 106.027 61.989 106.042L61.797 105.99C61.661 105.911 61.529 105.753 61.457 105.566C61.345 105.287 61.4116 105.051 61.5983 105.035L61.7903 105.087Z" fill="#2B2221"/>
<path d="M65.6864 93.4549C65.8224 93.5335 65.9557 93.6922 66.0264 93.8775C66.1331 94.1535 66.0718 94.3935 65.8851 94.4082L65.6944 94.3562C65.5584 94.2776 65.4251 94.1189 65.3544 93.9335C65.2424 93.6535 65.3091 93.4175 65.4958 93.4029L65.6864 93.4549Z" fill="#2B2221"/>
<path d="M66.3221 122.91C66.4887 123.006 66.6501 123.199 66.7381 123.427C66.8661 123.763 66.7927 124.057 66.5647 124.075L66.3314 124.011C66.1647 123.915 66.0034 123.722 65.9154 123.495C65.7781 123.154 65.8607 122.865 66.0887 122.846L66.3221 122.91Z" fill="#2B2221"/>
<path d="M55.5784 108.561C55.8344 108.708 56.0837 109.007 56.2171 109.356C56.4157 109.873 56.3024 110.325 55.9517 110.353C55.8384 110.361 55.7144 110.325 55.5917 110.255C55.337 110.108 55.0877 109.809 54.9531 109.46C54.7424 108.936 54.8691 108.491 55.2184 108.463C55.3331 108.453 55.4557 108.491 55.5784 108.561Z" fill="#2B2221"/>
<path d="M69.6353 92.5819L68.8232 93.0459V91.7152L69.6353 91.2526V92.5819Z" fill="#E5A012"/>
<path d="M69.209 90.0762C69.349 90.2682 69.4637 90.4855 69.5384 90.7068C69.5997 90.8908 69.6357 91.0762 69.6357 91.2522L68.8237 91.7148C68.8237 91.5402 68.7891 91.3548 68.7264 91.1708C68.6517 90.9495 68.5371 90.7322 68.3971 90.5388C68.2371 90.3215 68.0451 90.1362 67.8357 90.0175C67.5704 89.8642 67.3277 89.8508 67.1504 89.9522L67.9624 89.4895C68.1384 89.3882 68.3811 89.4002 68.6477 89.5535C68.8557 89.6735 69.049 89.8575 69.209 90.0762Z" fill="#FBD624"/>
<path d="M68.8234 91.7152V93.0459L66.8594 91.9192V90.5886C66.8594 89.9686 67.2994 89.7099 67.8354 90.0179C68.3821 90.3312 68.8234 91.0952 68.8234 91.7152Z" fill="#D58718"/>
<path d="M69.5378 90.7069L68.7258 91.1709C68.6511 90.9496 68.5365 90.7322 68.3965 90.5389L69.2085 90.0762C69.3485 90.2682 69.4631 90.4856 69.5378 90.7069Z" fill="#FAEE58"/>
<path d="M62.7054 116.563L62.2881 116.802V116.118L62.7054 115.879V116.563Z" fill="#E5A012"/>
<path d="M62.4864 115.275L62.6557 115.599L62.7051 115.879L62.2877 116.117L62.2384 115.837L62.0691 115.513L61.7797 115.244C61.6437 115.165 61.5184 115.159 61.4277 115.211L61.8451 114.973C61.9357 114.92 62.0611 114.927 62.1984 115.005L62.4864 115.275Z" fill="#FBD624"/>
<path d="M62.2877 116.118V116.802L61.2783 116.223V115.539C61.2783 115.219 61.505 115.087 61.7797 115.244C62.061 115.406 62.2877 115.799 62.2877 116.118Z" fill="#D58718"/>
<mask id="mask3_82_1672" style="mask-type:luminance" maskUnits="userSpaceOnUse" x="60" y="105" width="9" height="12">
<path d="M67.6009 106.617L67.3195 106.397C67.1729 106.221 67.1168 105.999 67.1942 105.817L67.2315 105.743L60.5462 115.978L60.5075 116.051C60.4315 116.234 60.4875 116.455 60.6342 116.633L60.9155 116.853C61.2208 117.006 61.5515 116.947 61.6942 116.727L68.3795 106.493C68.2368 106.711 67.9075 106.771 67.6009 106.617Z" fill="white"/>
</mask>
<g mask="url(#mask3_82_1672)">
<path d="M67.6009 106.617L67.3195 106.397C67.1729 106.221 67.1168 105.999 67.1942 105.817L67.2315 105.743L60.5462 115.978L60.5075 116.051C60.4315 116.234 60.4875 116.455 60.6342 116.633L60.9155 116.853C61.2208 117.006 61.5515 116.947 61.6942 116.727L68.3795 106.493C68.2368 106.711 67.9075 106.771 67.6009 106.617Z" fill="url(#paint2_linear_82_1672)"/>
</g>
<path d="M68.2859 105.835L68.0099 105.616C67.6726 105.452 67.3059 105.537 67.1939 105.816C67.1166 105.999 67.1726 106.22 67.3193 106.396L67.6006 106.616C67.9366 106.785 68.3006 106.697 68.4166 106.423C68.4913 106.236 68.4339 106.012 68.2859 105.835Z" fill="#362B29"/>
<path d="M73.3292 97.4706L73.0919 97.3333L67.4772 105.872C67.4065 106.028 67.4412 106.164 67.5305 106.271L67.7025 106.405C67.8892 106.5 68.0905 106.463 68.1785 106.329L73.8199 97.7493C73.6572 97.656 73.4959 97.5693 73.3292 97.4706Z" fill="white"/>
<path d="M61.2234 117.419L60.8047 117.657V116.973L61.2234 116.735V117.419Z" fill="#E5A012"/>
<path d="M61.004 116.131L61.1733 116.455L61.224 116.735L60.8053 116.974L60.756 116.694L60.5867 116.37L60.2986 116.1C60.1613 116.022 60.036 116.015 59.9453 116.067L60.3626 115.828C60.4533 115.776 60.5786 115.783 60.716 115.862L61.004 116.131Z" fill="#FBD624"/>
<path d="M60.8052 116.973V117.657L59.7959 117.079V116.393C59.7959 116.075 60.0226 115.943 60.2986 116.1C60.5786 116.261 60.8052 116.655 60.8052 116.973Z" fill="#D58718"/>
<path d="M61.1726 116.455L60.7553 116.693L60.5859 116.369L61.0033 116.131L61.1726 116.455Z" fill="#FAEE58"/>
<path d="M73.0758 98.1431L71.5425 97.2577V98.8764L73.0758 99.7617V98.1431Z" fill="#D58718"/>
<path d="M74.033 99.2084L73.0757 99.7617V98.1431L74.033 97.5911V99.2084Z" fill="#E5A012"/>
<path d="M73.0758 98.1426L71.5425 97.2573L72.4998 96.7052L74.0332 97.5906L73.0758 98.1426Z" fill="#FBC81C"/>
<path d="M56.5811 115.342L60.0451 118.4V113.342L56.5811 115.342Z" fill="#E5A012"/>
<mask id="mask4_82_1672" style="mask-type:luminance" maskUnits="userSpaceOnUse" x="81" y="133" width="21" height="15">
<path d="M81.7197 133.537V141.491C81.7437 142.939 82.7117 144.385 84.6264 145.49C88.501 147.726 94.7837 147.726 98.6584 145.49C100.62 144.357 101.588 142.87 101.565 141.386V133.431L81.7197 133.537Z" fill="white"/>
</mask>
<g mask="url(#mask4_82_1672)">
<path d="M81.7197 133.537V141.491C81.7437 142.939 82.7117 144.385 84.6264 145.49C88.501 147.726 94.7837 147.726 98.6584 145.49C100.62 144.357 101.588 142.87 101.565 141.386V133.431L81.7197 133.537Z" fill="url(#paint3_linear_82_1672)"/>
</g>
<path d="M98.6582 137.535C94.7836 139.772 88.5009 139.772 84.6262 137.535C80.7502 135.298 80.7502 131.671 84.6262 129.434C88.5009 127.196 94.7836 127.196 98.6582 129.434C102.534 131.671 102.534 135.298 98.6582 137.535Z" fill="#362B29"/>
<mask id="mask5_82_1672" style="mask-type:luminance" maskUnits="userSpaceOnUse" x="82" y="132" width="19" height="7">
<path d="M82.7422 132.178V133.176C82.7635 134.475 83.6315 135.771 85.3489 136.762C88.8249 138.768 94.4595 138.768 97.9355 136.762C99.6942 135.747 100.564 134.412 100.542 133.082V132.083L82.7422 132.178Z" fill="white"/>
</mask>
<g mask="url(#mask5_82_1672)">
<path d="M82.7422 132.178V133.176C82.7635 134.475 83.6315 135.771 85.3489 136.762C88.8249 138.768 94.4595 138.768 97.9355 136.762C99.6942 135.747 100.564 134.412 100.542 133.082V132.083L82.7422 132.178Z" fill="url(#paint4_linear_82_1672)"/>
</g>
<path d="M97.9359 135.765C94.4599 137.771 88.8252 137.771 85.3492 135.765C81.8732 133.758 81.8732 130.505 85.3492 128.498C88.8252 126.491 94.4599 126.491 97.9359 128.498C101.412 130.505 101.412 133.758 97.9359 135.765Z" fill="#362B29"/>
<path d="M85.6621 128.732L86.1394 128.455L90.8981 129.878L90.4208 130.156L85.6621 128.732Z" fill="#201B19"/>
<path d="M90.4207 130.157L90.8981 129.878L90.8901 131.198L90.4141 131.477L90.4207 130.157Z" fill="#A9751D"/>
<path d="M90.4141 131.477L85.6621 128.733L90.4208 130.157L90.4141 131.477Z" fill="#1D1917"/>
<path d="M97.6624 128.744L97.1864 128.466L92.4277 129.89L92.9037 130.167L97.6624 128.744Z" fill="#453735"/>
<path d="M92.9037 130.167L92.4277 129.89L92.4344 131.209L92.9117 131.487L92.9037 130.167Z" fill="#A9751D"/>
<path d="M92.9118 131.487L97.6625 128.745L92.9038 130.167L92.9118 131.487Z" fill="#231C1B"/>
<path d="M92.6623 97.5186C92.0916 97.848 91.1676 97.848 90.5969 97.5186C90.0263 97.1893 90.0263 96.656 90.5969 96.3266C91.1676 95.9973 92.0916 95.9973 92.6623 96.3266C93.2329 96.656 93.2329 97.1893 92.6623 97.5186Z" fill="#FBC81C"/>
<mask id="mask6_82_1672" style="mask-type:luminance" maskUnits="userSpaceOnUse" x="90" y="96" width="4" height="37">
<path d="M93.0903 96.9149V131.794C93.0929 132.012 92.9503 132.231 92.6623 132.398C92.0916 132.727 91.1676 132.727 90.5969 132.398C90.3156 132.235 90.1729 132.023 90.1689 131.81V96.9308C90.1729 97.1442 90.3156 97.3562 90.5969 97.5189C91.1676 97.8482 92.0916 97.8482 92.6623 97.5189C92.9503 97.3522 93.0929 97.1335 93.0903 96.9149Z" fill="white"/>
</mask>
<g mask="url(#mask6_82_1672)">
<path d="M93.0903 96.9149V131.794C93.0929 132.012 92.9503 132.231 92.6623 132.398C92.0916 132.727 91.1676 132.727 90.5969 132.398C90.3156 132.235 90.1729 132.023 90.1689 131.81V96.9308C90.1729 97.1442 90.3156 97.3562 90.5969 97.5189C91.1676 97.8482 92.0916 97.8482 92.6623 97.5189C92.9503 97.3522 93.0929 97.1335 93.0903 96.9149Z" fill="url(#paint5_linear_82_1672)"/>
</g>
<path d="M92.2754 131.227L92.7527 130.948L97.9474 135.271L97.4701 135.55L92.2754 131.227Z" fill="#453735"/>
<path d="M92.2757 131.227L97.4704 135.55L92.269 132.547L92.2757 131.227Z" fill="#1D1917"/>
<path d="M91.0491 131.239L90.5731 130.961L85.3784 135.283L85.8557 135.561L91.0491 131.239Z" fill="#362B29"/>
<path d="M91.0488 131.239L85.8555 135.561L91.0568 132.558L91.0488 131.239Z" fill="#231C1B"/>
<path d="M94.4035 98.4445C92.8782 99.3258 90.4061 99.3258 88.8808 98.4445C87.3555 97.5645 87.3555 96.1365 88.8808 95.2551C90.4061 94.3751 92.8782 94.3751 94.4035 95.2551C95.9288 96.1365 95.9288 97.5645 94.4035 98.4445Z" fill="#FBC81C"/>
<mask id="mask7_82_1672" style="mask-type:luminance" maskUnits="userSpaceOnUse" x="87" y="96" width="9" height="4">
<path d="M95.5475 96.8286V97.3939C95.5568 97.9779 95.1755 98.5646 94.4035 99.0099C92.8781 99.8899 90.4061 99.8899 88.8808 99.0099C88.1275 98.5739 87.7461 98.0059 87.7368 97.4366V96.8713C87.7461 97.4406 88.1275 98.0099 88.8808 98.4446C90.4061 99.3259 92.8781 99.3259 94.4035 98.4446C95.1755 97.9993 95.5568 97.4139 95.5475 96.8286Z" fill="white"/>
</mask>
<g mask="url(#mask7_82_1672)">
<path d="M95.5475 96.8286V97.3939C95.5568 97.9779 95.1755 98.5646 94.4035 99.0099C92.8781 99.8899 90.4061 99.8899 88.8808 99.0099C88.1275 98.5739 87.7461 98.0059 87.7368 97.4366V96.8713C87.7461 97.4406 88.1275 98.0099 88.8808 98.4446C90.4061 99.3259 92.8781 99.3259 94.4035 98.4446C95.1755 97.9993 95.5568 97.4139 95.5475 96.8286Z" fill="url(#paint6_linear_82_1672)"/>
</g>
<path d="M88.9678 95.3789L89.3171 95.1762L90.8958 95.0122L90.5464 95.2149L88.9678 95.3789Z" fill="#D58718"/>
<path d="M90.5461 95.2147L90.8955 95.0121L90.8928 96.0854L90.5435 96.2881L90.5461 95.2147Z" fill="#A9751D"/>
<path d="M90.5438 96.2881L88.9678 95.3787L90.5464 95.2147L90.5438 96.2881Z" fill="#D58718"/>
<path d="M94.4358 95.418L94.0865 95.2153L92.5078 95.0513L92.8571 95.254L94.4358 95.418Z" fill="#FBC81C"/>
<path d="M92.8571 95.2538L92.5078 95.0511L92.5118 96.1245L92.8598 96.3271L92.8571 95.2538Z" fill="#A9751D"/>
<path d="M92.8596 96.3271L94.4356 95.4178L92.8569 95.2538L92.8596 96.3271Z" fill="#E39D13"/>
<path d="M92.9874 94.6858C92.2448 95.1151 91.0394 95.1151 90.2968 94.6858C89.5528 94.2578 89.5528 93.5618 90.2968 93.1325C91.0394 92.7031 92.2448 92.7031 92.9874 93.1325C93.7314 93.5618 93.7314 94.2578 92.9874 94.6858Z" fill="#FBC81C"/>
<mask id="mask8_82_1672" style="mask-type:luminance" maskUnits="userSpaceOnUse" x="89" y="93" width="5" height="5">
<path d="M93.5451 93.8992V96.5512C93.5504 96.8365 93.3638 97.1218 92.9878 97.3392C92.2451 97.7672 91.0398 97.7672 90.2971 97.3392C89.9291 97.1272 89.7437 96.8498 89.7397 96.5725V93.9192C89.7437 94.1978 89.9291 94.4738 90.2971 94.6858C91.0398 95.1152 92.2451 95.1152 92.9878 94.6858C93.3638 94.4698 93.5504 94.1845 93.5451 93.8992Z" fill="white"/>
</mask>
<g mask="url(#mask8_82_1672)">
<path d="M93.5451 93.8992V96.5512C93.5504 96.8365 93.3638 97.1218 92.9878 97.3392C92.2451 97.7672 91.0398 97.7672 90.2971 97.3392C89.9291 97.1272 89.7437 96.8498 89.7397 96.5725V93.9192C89.7437 94.1978 89.9291 94.4738 90.2971 94.6858C91.0398 95.1152 92.2451 95.1152 92.9878 94.6858C93.3638 94.4698 93.5504 94.1845 93.5451 93.8992Z" fill="url(#paint7_linear_82_1672)"/>
</g>
<path d="M92.6411 96.4246L92.9904 96.2219L94.5638 98.2059L94.2145 98.4072L92.6411 96.4246Z" fill="#FBD624"/>
<path d="M92.6409 96.4246L94.2142 98.4072L92.6382 97.4979L92.6409 96.4246Z" fill="#D58718"/>
<path d="M90.7622 96.4626L90.4128 96.26L88.8408 98.2426L89.1902 98.4453L90.7622 96.4626Z" fill="#FBC81C"/>
<path d="M90.7624 96.4626L89.1904 98.4453L90.7651 97.536L90.7624 96.4626Z" fill="#E49E13"/>
<path d="M86.9022 85.2312L86.2915 85.5872L88.3382 86.7686L88.9475 86.4126L86.9022 85.2312Z" fill="#FBC81C"/>
<path d="M89.5677 87.1511C89.4931 86.9831 89.3917 86.8218 89.2744 86.6871L88.9477 86.4125L88.3384 86.7685L88.6637 87.0431C88.7824 87.1778 88.8837 87.3391 88.9584 87.5058C89.0424 87.6965 89.0917 87.8965 89.0917 88.0818C89.0904 88.3178 89.0051 88.4858 88.8704 88.5645L89.4797 88.2085C89.6157 88.1298 89.6997 87.9618 89.7011 87.7258C89.7011 87.5405 89.6517 87.3405 89.5677 87.1511Z" fill="#FBD624"/>
<path d="M88.3382 86.7679L86.2916 85.5866L86.2876 87.3319L88.3329 88.5132C88.7476 88.7519 89.0903 88.5572 89.0916 88.0812C89.0929 87.5959 88.7529 87.0065 88.3382 86.7679Z" fill="#D58718"/>
<path d="M89.2742 86.6872L88.6636 87.0432C88.7822 87.1779 88.8836 87.3392 88.9582 87.5059L89.5676 87.1512C89.4929 86.9832 89.3916 86.8219 89.2742 86.6872Z" fill="#FAEE58"/>
<path d="M87.909 86.3047L87.0557 85.8127V76.7607L87.909 77.2527V86.3047Z" fill="#D58718"/>
<path d="M88.1732 86.1527L87.9092 86.3047V77.2527L88.1732 77.1007V86.1527Z" fill="#E5A012"/>
<path d="M87.909 77.252L87.0557 76.76L87.3197 76.6079L88.173 77.0999L87.909 77.252Z" fill="#F89C12"/>
<path d="M86.9022 74.6111L86.2915 74.9671L88.3382 76.1484L88.9475 75.7924L86.9022 74.6111Z" fill="#FBC81C"/>
<path d="M89.5677 76.531C89.4931 76.3617 89.3917 76.203 89.2744 76.067L88.9477 75.7924L88.3384 76.1483L88.6637 76.423C88.7824 76.5577 88.8837 76.7177 88.9584 76.8857C89.0424 77.0763 89.0917 77.2764 89.0917 77.4617C89.0904 77.6977 89.0051 77.8657 88.8704 77.9443L89.4797 77.5883C89.6157 77.5097 89.6997 77.343 89.7011 77.1057C89.7011 76.9203 89.6517 76.7203 89.5677 76.531Z" fill="#FBD624"/>
<path d="M88.3382 76.1487L86.2916 74.9674L86.2876 76.7127L88.3329 77.8941C88.7476 78.1327 89.0903 77.9381 89.0916 77.4621C89.0929 76.9767 88.7529 76.3874 88.3382 76.1487Z" fill="#D58718"/>
<path d="M89.2742 76.0671L88.6636 76.4231C88.7822 76.5577 88.8836 76.7177 88.9582 76.8857L89.5676 76.5311C89.4929 76.3617 89.3916 76.2031 89.2742 76.0671Z" fill="#FAEE58"/>
<mask id="mask9_82_1672" style="mask-type:luminance" maskUnits="userSpaceOnUse" x="82" y="88" width="14" height="8">
<path d="M94.2194 92.591C93.6861 92.9004 93.0274 93.091 92.3407 93.1657C91.7327 93.231 91.1021 93.2057 90.5167 93.0884C90.0287 92.991 89.5701 92.8297 89.1821 92.6057L82.3754 88.6763L82.3647 90.7697L89.1714 94.699C89.5594 94.923 90.0167 95.0844 90.5061 95.1817C91.0914 95.2977 91.7207 95.3244 92.3287 95.259C93.0167 95.1844 93.6754 94.9937 94.2074 94.6844C94.8874 94.2884 95.2287 93.7657 95.2301 93.243L95.2407 91.1497C95.2394 91.6724 94.8994 92.195 94.2194 92.591Z" fill="white"/>
</mask>
<g mask="url(#mask9_82_1672)">
<path d="M94.2194 92.591C93.6861 92.9004 93.0274 93.091 92.3407 93.1657C91.7327 93.231 91.1021 93.2057 90.5167 93.0884C90.0287 92.991 89.5701 92.8297 89.1821 92.6057L82.3754 88.6763L82.3647 90.7697L89.1714 94.699C89.5594 94.923 90.0167 95.0844 90.5061 95.1817C91.0914 95.2977 91.7207 95.3244 92.3287 95.259C93.0167 95.1844 93.6754 94.9937 94.2074 94.6844C94.8874 94.2884 95.2287 93.7657 95.2301 93.243L95.2407 91.1497C95.2394 91.6724 94.8994 92.195 94.2194 92.591Z" fill="url(#paint8_linear_82_1672)"/>
</g>
<path d="M89.1822 92.606L82.3755 88.6767L87.3955 85.758L94.2035 89.6887C95.5808 90.4847 95.5888 91.7953 94.2195 92.5913C92.8235 93.402 90.5608 93.402 89.1822 92.606Z" fill="#FBC81C"/>
<path d="M83.7545 80.3826C83.7545 80.7639 83.4865 80.9186 83.1558 80.7279C82.8251 80.5373 82.5571 80.0733 82.5571 79.6906C82.5571 79.3093 82.8251 79.1546 83.1558 79.3452C83.4865 79.5359 83.7545 79.9999 83.7545 80.3826Z" fill="#FBC81C"/>
<mask id="mask10_82_1672" style="mask-type:luminance" maskUnits="userSpaceOnUse" x="82" y="76" width="7" height="5">
<path d="M82.729 79.3059L87.8183 76.3686C87.9263 76.3032 88.0783 76.3112 88.245 76.4072C88.5757 76.5979 88.8437 77.0632 88.8437 77.4446C88.8437 77.6339 88.7783 77.7659 88.673 77.8299L83.5837 80.7686C83.689 80.7046 83.7543 80.5712 83.7543 80.3832C83.7543 80.0006 83.4863 79.5366 83.1557 79.3459C82.989 79.2499 82.837 79.2419 82.729 79.3059Z" fill="white"/>
</mask>
<g mask="url(#mask10_82_1672)">
<path d="M82.729 79.3059L87.8183 76.3686C87.9263 76.3032 88.0783 76.3112 88.245 76.4072C88.5757 76.5979 88.8437 77.0632 88.8437 77.4446C88.8437 77.6339 88.7783 77.7659 88.673 77.8299L83.5837 80.7686C83.689 80.7046 83.7543 80.5712 83.7543 80.3832C83.7543 80.0006 83.4863 79.5366 83.1557 79.3459C82.989 79.2499 82.837 79.2419 82.729 79.3059Z" fill="url(#paint9_linear_82_1672)"/>
</g>
<path d="M81.3037 88.4627L80.6943 88.8187L82.7397 90L83.3503 89.644L81.3037 88.4627Z" fill="#FBC81C"/>
<path d="M83.9704 90.3826C83.8958 90.2146 83.7944 90.0546 83.6757 89.9186L83.3504 89.6439L82.7397 89.9999L83.0664 90.2746C83.1851 90.4092 83.2864 90.5692 83.3611 90.7386C83.4451 90.9279 83.4944 91.1279 83.4931 91.3132C83.4931 91.5506 83.4077 91.7172 83.2717 91.7959L83.8811 91.4399C84.0171 91.3612 84.1024 91.1946 84.1024 90.9573C84.1038 90.7719 84.0544 90.5719 83.9704 90.3826Z" fill="#FBD624"/>
<path d="M82.7396 90.0003L80.6943 88.819L80.689 90.5643L82.7356 91.7456C83.149 91.9843 83.4916 91.7896 83.493 91.3136C83.4943 90.8283 83.1543 90.239 82.7396 90.0003Z" fill="#D58718"/>
<path d="M83.6757 89.9193L83.0664 90.2753C83.1851 90.4099 83.2864 90.5699 83.3611 90.7393L83.9704 90.3833C83.8957 90.2153 83.7944 90.0553 83.6757 89.9193Z" fill="#FAEE58"/>
<path d="M82.3118 89.5361L81.4585 89.0441V79.9922L82.3118 80.4841V89.5361Z" fill="#D58718"/>
<path d="M82.5742 89.3841L82.3115 89.5361V80.4841L82.5742 80.3321V89.3841Z" fill="#E5A012"/>
<path d="M82.3118 80.4844L81.4585 79.9924L81.7212 79.8404L82.5745 80.3324L82.3118 80.4844Z" fill="#F89C12"/>
<path d="M81.3037 77.8425L80.6943 78.1985L82.7397 79.3799L83.3503 79.0239L81.3037 77.8425Z" fill="#FBC81C"/>
<path d="M83.9704 79.7621C83.8958 79.5941 83.7944 79.4341 83.6757 79.2994L83.3504 79.0248L82.7397 79.3808L83.0664 79.6554C83.1851 79.7901 83.2864 79.9514 83.3611 80.1181C83.4451 80.3088 83.4944 80.5088 83.4931 80.6941C83.4931 80.9301 83.4077 81.0981 83.2717 81.1768L83.8811 80.8208C84.0171 80.7421 84.1024 80.5741 84.1024 80.3381C84.1038 80.1528 84.0544 79.9528 83.9704 79.7621Z" fill="#FBD624"/>
<path d="M82.7396 79.3802L80.6943 78.1988L80.689 79.9442L82.7356 81.1255C83.149 81.3642 83.4916 81.1695 83.493 80.6935C83.4943 80.2082 83.1543 79.6188 82.7396 79.3802Z" fill="#D58718"/>
<path d="M83.6757 79.2985L83.0664 79.6545C83.1851 79.7892 83.2864 79.9505 83.3611 80.1172L83.9704 79.7612C83.8957 79.5932 83.7944 79.4332 83.6757 79.2985Z" fill="#FAEE58"/>
<path d="M93.9784 90.4547C92.6891 91.2 90.597 91.2 89.3064 90.4547C88.0157 89.7093 88.0157 88.5027 89.3064 87.7573C90.597 87.012 92.6891 87.012 93.9784 87.7573C95.2691 88.5027 95.2691 89.7093 93.9784 90.4547Z" fill="#FBC81C"/>
<mask id="mask11_82_1672" style="mask-type:luminance" maskUnits="userSpaceOnUse" x="88" y="89" width="7" height="4">
<path d="M94.9464 89.088V90.88C94.9544 91.3747 94.6317 91.8693 93.9784 92.2467C92.6891 92.992 90.597 92.992 89.3064 92.2467C88.669 91.8787 88.3464 91.3973 88.3384 90.9147V89.124C88.3464 89.6053 88.669 90.0867 89.3064 90.4547C90.597 91.2 92.6891 91.2 93.9784 90.4547C94.6317 90.0773 94.9544 89.5827 94.9464 89.088Z" fill="white"/>
</mask>
<g mask="url(#mask11_82_1672)">
<path d="M94.9464 89.088V90.88C94.9544 91.3747 94.6317 91.8693 93.9784 92.2467C92.6891 92.992 90.597 92.992 89.3064 92.2467C88.669 91.8787 88.3464 91.3973 88.3384 90.9147V89.124C88.3464 89.6053 88.669 90.0867 89.3064 90.4547C90.597 91.2 92.6891 91.2 93.9784 90.4547C94.6317 90.0773 94.9544 89.5827 94.9464 89.088Z" fill="url(#paint10_linear_82_1672)"/>
</g>
<path d="M93.2931 88.5425C92.3811 89.0692 90.9037 89.0692 89.9931 88.5425C89.0811 88.0172 89.0811 87.1638 89.9931 86.6385C90.9037 86.1118 92.3811 86.1118 93.2931 86.6385C94.2037 87.1638 94.2037 88.0172 93.2931 88.5425Z" fill="#FBC81C"/>
<mask id="mask12_82_1672" style="mask-type:luminance" maskUnits="userSpaceOnUse" x="89" y="87" width="5" height="4">
<path d="M93.9757 87.5788V88.8428C93.9811 89.1921 93.7531 89.5428 93.2931 89.8081C92.3811 90.3348 90.9037 90.3348 89.9931 89.8081C89.5424 89.5481 89.3144 89.2095 89.3091 88.8681V87.6028C89.3144 87.9428 89.5424 88.2841 89.9931 88.5428C90.9037 89.0695 92.3811 89.0695 93.2931 88.5428C93.7531 88.2761 93.9811 87.9268 93.9757 87.5788Z" fill="white"/>
</mask>
<g mask="url(#mask12_82_1672)">
<path d="M93.9757 87.5788V88.8428C93.9811 89.1921 93.7531 89.5428 93.2931 89.8081C92.3811 90.3348 90.9037 90.3348 89.9931 89.8081C89.5424 89.5481 89.3144 89.2095 89.3091 88.8681V87.6028C89.3144 87.9428 89.5424 88.2841 89.9931 88.5428C90.9037 89.0695 92.3811 89.0695 93.2931 88.5428C93.7531 88.2761 93.9811 87.9268 93.9757 87.5788Z" fill="url(#paint11_linear_82_1672)"/>
</g>
<path d="M93.9784 88.191C92.6891 88.9363 90.597 88.9363 89.3064 88.191C88.0157 87.447 88.0157 86.239 89.3064 85.4937C90.597 84.7483 92.6891 84.7483 93.9784 85.4937C95.2691 86.239 95.2691 87.447 93.9784 88.191Z" fill="#FBC81C"/>
<mask id="mask13_82_1672" style="mask-type:luminance" maskUnits="userSpaceOnUse" x="88" y="86" width="7" height="4">
<path d="M94.9464 86.8255V87.3028C94.9544 87.7962 94.6317 88.2922 93.9784 88.6695C92.6891 89.4148 90.597 89.4148 89.3064 88.6695C88.669 88.3015 88.3464 87.8202 88.3384 87.3375V86.8602C88.3464 87.3429 88.669 87.8229 89.3064 88.1909C90.597 88.9362 92.6891 88.9362 93.9784 88.1909C94.6317 87.8149 94.9544 87.3189 94.9464 86.8255Z" fill="white"/>
</mask>
<g mask="url(#mask13_82_1672)">
<path d="M94.9464 86.8255V87.3028C94.9544 87.7962 94.6317 88.2922 93.9784 88.6695C92.6891 89.4148 90.597 89.4148 89.3064 88.6695C88.669 88.3015 88.3464 87.8202 88.3384 87.3375V86.8602C88.3464 87.3429 88.669 87.8229 89.3064 88.1909C90.597 88.9362 92.6891 88.9362 93.9784 88.1909C94.6317 87.8149 94.9544 87.3189 94.9464 86.8255Z" fill="url(#paint12_linear_82_1672)"/>
</g>
<path d="M93.2931 86.3071C92.3811 86.8338 90.9037 86.8338 89.9931 86.3071C89.0811 85.7818 89.0811 84.9285 89.9931 84.4018C90.9037 83.8765 92.3811 83.8765 93.2931 84.4018C94.2037 84.9285 94.2037 85.7818 93.2931 86.3071Z" fill="#FBC81C"/>
<mask id="mask14_82_1672" style="mask-type:luminance" maskUnits="userSpaceOnUse" x="89" y="85" width="5" height="3">
<path d="M93.9757 85.3421V86.6074C93.9811 86.9568 93.7531 87.3074 93.2931 87.5728C92.3811 88.0994 90.9037 88.0994 89.9931 87.5728C89.5424 87.3128 89.3144 86.9728 89.3091 86.6328V85.3674C89.3144 85.7074 89.5424 86.0474 89.9931 86.3074C90.9037 86.8341 92.3811 86.8341 93.2931 86.3074C93.7531 86.0408 93.9811 85.6914 93.9757 85.3421Z" fill="white"/>
</mask>
<g mask="url(#mask14_82_1672)">
<path d="M93.9757 85.3421V86.6074C93.9811 86.9568 93.7531 87.3074 93.2931 87.5728C92.3811 88.0994 90.9037 88.0994 89.9931 87.5728C89.5424 87.3128 89.3144 86.9728 89.3091 86.6328V85.3674C89.3144 85.7074 89.5424 86.0474 89.9931 86.3074C90.9037 86.8341 92.3811 86.8341 93.2931 86.3074C93.7531 86.0408 93.9811 85.6914 93.9757 85.3421Z" fill="url(#paint13_linear_82_1672)"/>
</g>
<path d="M87.4128 88.1187C86.9821 88.3667 86.2835 88.3667 85.8528 88.1187C85.4221 87.8694 85.4221 87.4667 85.8528 87.2174C86.2835 86.9694 86.9821 86.9694 87.4128 87.2174C87.8434 87.4667 87.8434 87.8694 87.4128 88.1187Z" fill="#FBC81C"/>
<mask id="mask15_82_1672" style="mask-type:luminance" maskUnits="userSpaceOnUse" x="85" y="87" width="3" height="2">
<path d="M87.7369 87.6617V88.2603C87.7396 88.4257 87.6316 88.591 87.4129 88.7163C86.9823 88.9657 86.2836 88.9657 85.8529 88.7163C85.6409 88.5937 85.5329 88.4336 85.5303 88.2723V87.6736C85.5329 87.835 85.6409 87.995 85.8529 88.119C86.2836 88.367 86.9823 88.367 87.4129 88.119C87.6316 87.9923 87.7396 87.827 87.7369 87.6617Z" fill="white"/>
</mask>
<g mask="url(#mask15_82_1672)">
<path d="M87.7369 87.6617V88.2603C87.7396 88.4257 87.6316 88.591 87.4129 88.7163C86.9823 88.9657 86.2836 88.9657 85.8529 88.7163C85.6409 88.5937 85.5329 88.4336 85.5303 88.2723V87.6736C85.5329 87.835 85.6409 87.995 85.8529 88.119C86.2836 88.367 86.9823 88.367 87.4129 88.119C87.6316 87.9923 87.7396 87.827 87.7369 87.6617Z" fill="url(#paint14_linear_82_1672)"/>
</g>
<path d="M92.6623 35.3458C92.0916 35.6751 91.1676 35.6751 90.5969 35.3458C90.0263 35.0164 90.0263 34.4831 90.5969 34.1538C91.1676 33.8244 92.0916 33.8244 92.6623 34.1538C93.2329 34.4831 93.2329 35.0164 92.6623 35.3458Z" fill="#FBC81C"/>
<mask id="mask16_82_1672" style="mask-type:luminance" maskUnits="userSpaceOnUse" x="90" y="34" width="4" height="53">
<path d="M93.0903 34.7416V85.1509C93.0929 85.3696 92.9503 85.5883 92.6623 85.755C92.0916 86.0843 91.1676 86.0843 90.5969 85.755C90.3156 85.5923 90.1729 85.3789 90.1689 85.1669V34.7576C90.1729 34.971 90.3156 35.1829 90.5969 35.3456C91.1676 35.6749 92.0916 35.6749 92.6623 35.3456C92.9503 35.1789 93.0929 34.9603 93.0903 34.7416Z" fill="white"/>
</mask>
<g mask="url(#mask16_82_1672)">
<path d="M93.0903 34.7416V85.1509C93.0929 85.3696 92.9503 85.5883 92.6623 85.755C92.0916 86.0843 91.1676 86.0843 90.5969 85.755C90.3156 85.5923 90.1729 85.3789 90.1689 85.1669V34.7576C90.1729 34.971 90.3156 35.1829 90.5969 35.3456C91.1676 35.6749 92.0916 35.6749 92.6623 35.3456C92.9503 35.1789 93.0929 34.9603 93.0903 34.7416Z" fill="url(#paint15_linear_82_1672)"/>
</g>
<path d="M91.4677 4.91517L93.8264 3.54316L87.5383 9.1485L85.1797 10.5205L91.4677 4.91517Z" fill="#2B2221"/>
<path d="M79.1076 1.60671L78.965 1.65205L76.605 3.02539L76.749 2.97871L90.981 1.37204L93.3396 3.27324e-05L79.1076 1.60671Z" fill="#2B2221"/>
<path d="M91.5571 2.07904L91.5491 4.69105L91.4678 4.91504L93.8264 3.54303L93.9078 3.31904L93.9158 0.705696L91.5571 2.07904Z" fill="#2B2221"/>
<path d="M93.8503 0.424447L93.701 0.188444L93.5343 0.0484376L93.3396 0.000423301L90.981 1.37243L91.1756 1.42044L91.3423 1.56178L91.4916 1.79642L91.5569 2.0791L93.9156 0.705762L93.8503 0.424447Z" fill="#362B29"/>
<path d="M91.1758 1.42051C91.3731 1.53518 91.5571 1.82583 91.5571 2.07917L91.5491 4.69118L91.4678 4.91517L85.1798 10.5205L76.3838 5.44183L76.3891 3.50049C76.3904 3.20316 76.5291 3.00183 76.7491 2.97917L90.9811 1.37249L91.1758 1.42051Z" fill="#1D1917"/>
<path d="M86.2755 26.9767L86.2715 28.5314L89.0862 30.998L89.0902 29.4434L86.2755 26.9767Z" fill="#1D1917"/>
<mask id="mask17_82_1672" style="mask-type:luminance" maskUnits="userSpaceOnUse" x="79" y="30" width="16" height="7">
<path d="M93.6839 34.2635C92.7239 34.8221 91.1945 34.9101 90.0505 34.4741L79.9825 30.6341L79.9785 32.1888L90.0452 36.0301C91.1892 36.4661 92.7198 36.3768 93.6798 35.8181C94.2278 35.4995 94.5118 35.0741 94.5132 34.6435L94.5172 33.0888C94.5159 33.5181 94.2319 33.9448 93.6839 34.2635Z" fill="white"/>
</mask>
<g mask="url(#mask17_82_1672)">
<path d="M93.6839 34.2635C92.7239 34.8221 91.1945 34.9101 90.0505 34.4741L79.9825 30.6341L79.9785 32.1888L90.0452 36.0301C91.1892 36.4661 92.7198 36.3768 93.6798 35.8181C94.2278 35.4995 94.5118 35.0741 94.5132 34.6435L94.5172 33.0888C94.5159 33.5181 94.2319 33.9448 93.6839 34.2635Z" fill="url(#paint16_linear_82_1672)"/>
</g>
<path d="M94.0358 32.158L87.3651 26.3433L86.2757 26.9766L89.0904 29.4433L85.3384 31.6233L81.0798 29.9966L79.9824 30.6339L90.0504 34.474C91.1944 34.91 92.7238 34.8219 93.6838 34.2633C94.6438 33.7059 94.7931 32.8193 94.0358 32.158Z" fill="#362B29"/>
<path d="M82.0568 12.3555L79.6475 10.9648V6.89678L82.0568 8.28747V12.3555Z" fill="#1D1917"/>
<path d="M85.1758 10.5541L82.0571 12.3555V8.28747L85.1758 6.48747V10.5541Z" fill="#2B2221"/>
<path d="M82.0568 8.28711L79.6475 6.89642L82.7661 5.09642L85.1755 6.48711L82.0568 8.28711Z" fill="#362B29"/>
<path d="M86.1488 7.9972L88.5075 6.62523L82.2195 12.2305L79.8608 13.6025L86.1488 7.9972Z" fill="#2B2221"/>
<path d="M73.7889 4.69108L73.6463 4.73639L71.2876 6.1084L71.4303 6.06175L85.6623 4.45508L88.0222 3.08307L73.7889 4.69108Z" fill="#2B2221"/>
<path d="M86.2382 5.16208L86.2303 7.77406L86.1489 7.99805L88.5076 6.62607L88.5903 6.40339L88.5969 3.79007L86.2382 5.16208Z" fill="#2B2221"/>
<path d="M88.5328 3.50742L88.3821 3.27275L88.2154 3.13141L88.0221 3.08343L85.6621 4.45544L85.8568 4.50342L86.0234 4.64476L86.1728 4.87943L86.2381 5.16211L88.5968 3.7901L88.5328 3.50742Z" fill="#362B29"/>
<path d="M85.8569 4.50254C86.0556 4.61721 86.2383 4.9079 86.2383 5.16123L86.2303 7.77321L86.1489 7.9972L79.8609 13.6025L71.0649 8.52523L71.0703 6.58389C71.0716 6.28522 71.2103 6.08523 71.4303 6.06123L85.6623 4.45456L85.8569 4.50254Z" fill="#1D1917"/>
<mask id="mask18_82_1672" style="mask-type:luminance" maskUnits="userSpaceOnUse" x="89" y="32" width="5" height="2">
<path d="M89.9945 32.3452L89.9932 32.9305C89.9918 33.1892 90.1598 33.4492 90.4958 33.6505C91.1798 34.0599 92.3052 34.0705 93.0078 33.6759C93.3665 33.4759 93.5465 33.2079 93.5465 32.9399L93.5492 32.3545L89.9945 32.3452Z" fill="white"/>
</mask>
<g mask="url(#mask18_82_1672)">
<path d="M89.9945 32.3452L89.9932 32.9305C89.9918 33.1892 90.1598 33.4492 90.4958 33.6505C91.1798 34.0599 92.3052 34.0705 93.0078 33.6759C93.3665 33.4759 93.5465 33.2079 93.5465 32.9399L93.5492 32.3545L89.9945 32.3452Z" fill="url(#paint17_linear_82_1672)"/>
</g>
<mask id="mask19_82_1672" style="mask-type:luminance" maskUnits="userSpaceOnUse" x="89" y="30" width="5" height="4">
<path d="M93.453 32.0186L92.3596 30.1692L91.1956 30.1652L90.093 32.0092C89.8796 32.3639 90.013 32.7759 90.497 33.0639C91.181 33.4732 92.3063 33.4852 93.0103 33.0906C93.5196 32.8039 93.669 32.3839 93.453 32.0186Z" fill="white"/>
</mask>
<g mask="url(#mask19_82_1672)">
<path d="M93.453 32.0186L92.3596 30.1692L91.1956 30.1652L90.093 32.0092C89.8796 32.3639 90.013 32.7759 90.497 33.0639C91.181 33.4732 92.3063 33.4852 93.0103 33.0906C93.5196 32.8039 93.669 32.3839 93.453 32.0186Z" fill="url(#paint18_linear_82_1672)"/>
</g>
<path d="M92.2182 30.0363C91.9808 29.8949 91.5915 29.8909 91.3488 30.0269C91.1048 30.1643 91.0995 30.3896 91.3355 30.5309C91.5728 30.6723 91.9622 30.6763 92.2062 30.5403C92.4502 30.4029 92.4555 30.1776 92.2182 30.0363Z" fill="#FBC81C"/>
<path d="M91.777 30.292L91.6517 30.188L87.249 5.96664L87.3504 5.81999L87.4984 5.92132L91.6903 28.976L92.5637 3.07865L92.6917 2.95599L92.8184 3.08666L91.9037 30.1693L91.7864 30.292H91.777Z" fill="#2B2221"/>
<path d="M35.0115 102.555H34.1395L23.3955 96.352L27.4635 94.0027L35.0115 102.555Z" fill="#DD9415"/>
<path d="M35.0119 102.555L24.2266 96.328V94.824L35.0119 101.051V102.555Z" fill="#D58718"/>
<path d="M41.8864 98.5854L35.0117 102.555V101.051L41.8864 97.0827V98.5854Z" fill="#E5A012"/>
<path d="M35.0119 101.051L24.2266 94.8241L31.1012 90.8548L41.8866 97.0828L35.0119 101.051Z" fill="#FBC81C"/>
<path d="M52.6032 122.401L19.5605 103.324V102.535L52.6032 121.612V122.401Z" fill="#A22B20"/>
<path d="M20.3887 97.2552V97.6538L27.738 101.896V101.534L20.3887 97.2552Z" fill="#98581D"/>
<path d="M27.6158 101.707L20.2158 97.4324L20.3771 97.1297L27.7771 101.404L27.6158 101.707Z" fill="#E5A012"/>
<path d="M27.7766 101.404V101.614L27.6152 101.707L27.7766 101.404Z" fill="#DE9215"/>
<path d="M20.3887 97.9508V98.3482L27.738 102.591V102.228L20.3887 97.9508Z" fill="#98581D"/>
<path d="M27.6158 102.403L20.2158 98.1273L20.3771 97.8247L27.7771 102.101L27.6158 102.403Z" fill="#E5A012"/>
<path d="M27.7766 102.101V102.31L27.6152 102.403L27.7766 102.101Z" fill="#DE9215"/>
<path d="M20.3887 98.6458V99.0444L27.738 103.287V102.924L20.3887 98.6458Z" fill="#98581D"/>
<path d="M27.6158 103.098L20.2158 98.823L20.3771 98.5203L27.7771 102.795L27.6158 103.098Z" fill="#E5A012"/>
<path d="M27.7766 102.795V103.004L27.6152 103.098L27.7766 102.795Z" fill="#DE9215"/>
<path d="M20.3887 99.3414V99.7388L27.738 103.981V103.619L20.3887 99.3414Z" fill="#98581D"/>
<path d="M27.6158 103.794L20.2158 99.518L20.3771 99.2153L27.7771 103.491L27.6158 103.794Z" fill="#E5A012"/>
<path d="M27.7766 103.491V103.701L27.6152 103.794L27.7766 103.491Z" fill="#DE9215"/>
<path d="M20.3887 100.036V100.434L27.738 104.678V104.315L20.3887 100.036Z" fill="#98581D"/>
<path d="M27.6158 104.488L20.2158 100.214L20.3771 99.911L27.7771 104.186L27.6158 104.488Z" fill="#E5A012"/>
<path d="M27.7766 104.186V104.395L27.6152 104.488L27.7766 104.186Z" fill="#DE9215"/>
<path d="M20.3887 100.732V101.129L27.738 105.372V105.009L20.3887 100.732Z" fill="#98581D"/>
<path d="M27.6158 105.185L20.2158 100.909L20.3771 100.606L27.7771 104.882L27.6158 105.185Z" fill="#E5A012"/>
<path d="M27.7766 104.882V105.091L27.6152 105.185L27.7766 104.882Z" fill="#DE9215"/>
<path d="M20.3887 101.427V101.826L27.738 106.068V105.706L20.3887 101.427Z" fill="#98581D"/>
<path d="M27.6158 105.879L20.2158 101.604L20.3771 101.302L27.7771 105.576L27.6158 105.879Z" fill="#E5A012"/>
<path d="M27.7766 105.576V105.786L27.6152 105.879L27.7766 105.576Z" fill="#DE9215"/>
<path d="M20.3887 102.123V102.52L27.738 106.763V106.4L20.3887 102.123Z" fill="#98581D"/>
<path d="M27.6158 106.575L20.2158 102.299L20.3771 101.997L27.7771 106.273L27.6158 106.575Z" fill="#E5A012"/>
<path d="M27.7766 106.273V106.481L27.6152 106.575L27.7766 106.273Z" fill="#DE9215"/>
<path d="M69.3825 127.072L69.0438 127.058C65.1492 126.722 59.5265 125.11 57.6865 123.335C56.7758 122.455 56.2745 121.075 56.2745 119.447V115.89C56.2745 115.558 56.0958 115.251 55.8092 115.084L55.6852 115.004C55.5532 114.916 55.3305 114.767 55.2358 114.834C55.1558 114.89 55.1558 115.234 55.2105 115.504L55.1105 115.654L54.9598 115.554C54.9265 115.382 54.8345 114.807 55.0891 114.626C55.3251 114.454 55.6278 114.659 55.8265 114.794L55.9372 114.864C56.3012 115.075 56.5278 115.468 56.5278 115.89V119.447C56.5278 121.006 57.0025 122.32 57.8638 123.151C59.6652 124.89 65.2132 126.472 69.0652 126.804C70.0612 126.886 71.0198 126.57 71.7678 125.904C72.5198 125.234 72.9492 124.308 72.9772 123.3L74.0665 84.9309L74.1305 84.8243H74.2545L75.9998 85.7856L76.0492 85.9589L75.8772 86.0083L74.3145 85.1483L73.2318 123.307C73.2012 124.387 72.7412 125.376 71.9372 126.094C71.2225 126.731 70.3265 127.072 69.3825 127.072Z" fill="#1D1917"/>
<path d="M69.7853 126.839L69.4466 126.826C65.552 126.49 59.9293 124.878 58.0893 123.103C57.1786 122.223 56.676 120.843 56.676 119.215V115.658C56.676 115.326 56.4986 115.018 56.212 114.852L56.0866 114.772C55.956 114.683 55.7346 114.532 55.6386 114.6C55.5586 114.658 55.5586 115.002 55.6133 115.272L55.512 115.422L55.3626 115.322C55.3293 115.15 55.236 114.574 55.492 114.394C55.7266 114.223 56.0293 114.426 56.2293 114.562L56.3386 114.632C56.704 114.842 56.9306 115.235 56.9306 115.658V119.215C56.9306 120.774 57.4053 122.088 58.2666 122.919C60.068 124.658 65.6146 126.239 69.468 126.571C70.4653 126.652 71.4226 126.336 72.1706 125.671C72.9213 125.002 73.352 124.076 73.38 123.068L74.4693 84.6989L74.532 84.5922L74.6573 84.5909L76.4013 85.5535L76.452 85.7269L76.28 85.7762L74.7173 84.9149L73.6346 123.075C73.604 124.154 73.144 125.143 72.34 125.862C71.6253 126.499 70.728 126.839 69.7853 126.839Z" fill="#1D1917"/>
<path d="M70.1873 126.607L69.8487 126.593C65.9527 126.257 60.3313 124.645 58.4913 122.87C57.5807 121.991 57.0793 120.611 57.0793 118.983V115.425C57.0793 115.094 56.9007 114.786 56.6127 114.621L56.4887 114.541C56.3567 114.451 56.1393 114.303 56.0407 114.369C55.958 114.427 55.9607 114.77 56.0153 115.039L55.9153 115.19L55.7647 115.089C55.73 114.918 55.638 114.343 55.8927 114.162C56.1313 113.99 56.4313 114.194 56.6313 114.33L56.7407 114.401C57.106 114.611 57.3327 115.003 57.3327 115.425V118.983C57.3327 120.541 57.8073 121.857 58.6687 122.687C60.47 124.425 66.018 126.007 69.87 126.339C70.8673 126.427 71.826 126.105 72.5713 125.439C73.3233 124.769 73.754 123.845 73.782 122.835L74.8713 84.4674L74.9353 84.3608L75.0593 84.3594L76.8033 85.3221L76.854 85.4941L76.6807 85.5448L75.1193 84.6834L74.0367 122.843C74.006 123.922 73.546 124.913 72.7407 125.63C72.0273 126.266 71.1313 126.607 70.1873 126.607Z" fill="#1D1917"/>
<path d="M70.59 126.375L70.2513 126.36C66.3553 126.024 60.7326 124.412 58.8926 122.638C57.982 121.759 57.4806 120.378 57.4806 118.751V115.192C57.4806 114.862 57.3033 114.554 57.0166 114.388L56.89 114.307C56.758 114.218 56.538 114.066 56.4433 114.136C56.362 114.195 56.3633 114.536 56.418 114.807L56.3166 114.956L56.1673 114.856C56.134 114.684 56.0406 114.111 56.2966 113.928C56.5313 113.76 56.834 113.963 57.0326 114.095L57.1433 114.168C57.5086 114.379 57.7353 114.771 57.7353 115.192V118.751C57.7353 120.308 58.21 121.624 59.07 122.454C60.8713 124.192 66.4193 125.775 70.2726 126.107C71.2713 126.195 72.2273 125.872 72.974 125.207C73.726 124.536 74.1567 123.612 74.1847 122.603L75.274 84.2337L75.3367 84.127H75.462L77.206 85.0883L77.2553 85.2617L77.0833 85.311L75.522 84.451L74.4393 122.611C74.4086 123.69 73.9473 124.679 73.1433 125.396C72.4286 126.034 71.5326 126.375 70.59 126.375Z" fill="#1D1917"/>
<path d="M77.225 87.6768L74.8184 86.2888V84.3101L77.225 85.6994V87.6768Z" fill="#D58718"/>
<path d="M79.8638 86.1541L77.2251 87.6768V85.6994L79.8638 84.1768V86.1541Z" fill="#E5A012"/>
<path d="M77.225 85.6992L74.8184 84.3099L77.457 82.7859L79.8637 84.1766L77.225 85.6992Z" fill="#FBC81C"/>
<defs>
<linearGradient id="paint0_linear_82_1672" x1="68.3064" y1="108.359" x2="69.5391" y2="109.167" gradientUnits="userSpaceOnUse">
<stop stop-color="#1D1918"/>
<stop offset="1" stop-color="#231D1B"/>
</linearGradient>
<linearGradient id="paint1_linear_82_1672" x1="68.117" y1="83.7679" x2="74.2353" y2="83.7679" gradientUnits="userSpaceOnUse">
<stop stop-color="#D58719"/>
<stop offset="1" stop-color="#E5A012"/>
</linearGradient>
<linearGradient id="paint2_linear_82_1672" x1="63.6702" y1="111.035" x2="64.9028" y2="111.843" gradientUnits="userSpaceOnUse">
<stop stop-color="#1D1918"/>
<stop offset="1" stop-color="#231D1B"/>
</linearGradient>
<linearGradient id="paint3_linear_82_1672" x1="81.7197" y1="140.299" x2="101.565" y2="140.299" gradientUnits="userSpaceOnUse">
<stop stop-color="#1D1918"/>
<stop offset="1" stop-color="#231D1B"/>
</linearGradient>
<linearGradient id="paint4_linear_82_1672" x1="82.7422" y1="135.175" x2="100.542" y2="135.175" gradientUnits="userSpaceOnUse">
<stop stop-color="#1D1918"/>
<stop offset="1" stop-color="#231D1B"/>
</linearGradient>
<linearGradient id="paint5_linear_82_1672" x1="90.2516" y1="114.78" x2="93.0264" y2="114.78" gradientUnits="userSpaceOnUse">
<stop stop-color="#1D1918"/>
<stop offset="1" stop-color="#2B2221"/>
</linearGradient>
<linearGradient id="paint6_linear_82_1672" x1="87.7368" y1="98.2499" x2="95.5482" y2="98.2499" gradientUnits="userSpaceOnUse">
<stop stop-color="#D58719"/>
<stop offset="1" stop-color="#E5A012"/>
</linearGradient>
<linearGradient id="paint7_linear_82_1672" x1="89.8477" y1="95.7805" x2="93.4643" y2="95.7805" gradientUnits="userSpaceOnUse">
<stop stop-color="#D58719"/>
<stop offset="1" stop-color="#E5A012"/>
</linearGradient>
<linearGradient id="paint8_linear_82_1672" x1="89.7701" y1="91.9844" x2="94.9799" y2="91.9844" gradientUnits="userSpaceOnUse">
<stop stop-color="#D58719"/>
<stop offset="1" stop-color="#E5A012"/>
</linearGradient>
<linearGradient id="paint9_linear_82_1672" x1="85.4877" y1="77.7139" x2="86.3342" y2="79.1802" gradientUnits="userSpaceOnUse">
<stop stop-color="#FBD625"/>
<stop offset="1" stop-color="#E5A012"/>
</linearGradient>
<linearGradient id="paint10_linear_82_1672" x1="88.3384" y1="90.9467" x2="94.9465" y2="90.9467" gradientUnits="userSpaceOnUse">
<stop stop-color="#D58719"/>
<stop offset="1" stop-color="#E5A012"/>
</linearGradient>
<linearGradient id="paint11_linear_82_1672" x1="89.3091" y1="88.8908" x2="93.9758" y2="88.8908" gradientUnits="userSpaceOnUse">
<stop stop-color="#D58719"/>
<stop offset="1" stop-color="#E5A012"/>
</linearGradient>
<linearGradient id="paint12_linear_82_1672" x1="88.3384" y1="88.0269" x2="94.9465" y2="88.0269" gradientUnits="userSpaceOnUse">
<stop stop-color="#D58719"/>
<stop offset="1" stop-color="#E5A012"/>
</linearGradient>
<linearGradient id="paint13_linear_82_1672" x1="89.3091" y1="86.6554" x2="93.9758" y2="86.6554" gradientUnits="userSpaceOnUse">
<stop stop-color="#D58719"/>
<stop offset="1" stop-color="#E5A012"/>
</linearGradient>
<linearGradient id="paint14_linear_82_1672" x1="85.5303" y1="88.283" x2="87.7367" y2="88.283" gradientUnits="userSpaceOnUse">
<stop stop-color="#D58719"/>
<stop offset="1" stop-color="#E5A012"/>
</linearGradient>
<linearGradient id="paint15_linear_82_1672" x1="90.2516" y1="60.3723" x2="93.0264" y2="60.3723" gradientUnits="userSpaceOnUse">
<stop stop-color="#1D1918"/>
<stop offset="1" stop-color="#2B2221"/>
</linearGradient>
<linearGradient id="paint16_linear_82_1672" x1="89.5585" y1="33.4701" x2="93.2239" y2="33.4701" gradientUnits="userSpaceOnUse">
<stop stop-color="#1D1918"/>
<stop offset="1" stop-color="#2B2221"/>
</linearGradient>
<linearGradient id="paint17_linear_82_1672" x1="89.9932" y1="33.1545" x2="93.5487" y2="33.1545" gradientUnits="userSpaceOnUse">
<stop stop-color="#D58719"/>
<stop offset="1" stop-color="#E5A012"/>
</linearGradient>
<linearGradient id="paint18_linear_82_1672" x1="89.9943" y1="31.7719" x2="93.5482" y2="31.7719" gradientUnits="userSpaceOnUse">
<stop stop-color="#F69A0F"/>
<stop offset="1" stop-color="#F7AD0E"/>
</linearGradient>
</defs>
</svg>
