<svg width="430" height="117" viewBox="0 0 430 117" fill="none" xmlns="http://www.w3.org/2000/svg">
<g clip-path="url(#clip0_78_2)">
<path d="M134.69 77.9199L127.56 93.5099H130.57C132.96 89.8399 134.95 85.8699 136.47 81.6699L134.69 77.9299V77.9199Z" fill="#E53720"/>
<path d="M31.1299 81.72C32.6499 85.92 34.6499 89.88 37.0399 93.55H40.0499L32.9199 77.96L31.1299 81.72Z" fill="#E53720"/>
<path d="M39.5601 49.6099H56.2301L38.7001 27.4399C31.7601 36.9499 27.6701 48.7399 27.6201 61.4899L33.3201 50.0899H34.1201L67.4201 116.68H76.8001V94.3499L39.5601 49.6099Z" fill="#E53720"/>
<path d="M133.48 50.0502H134.28L139.95 61.3902C139.88 48.6702 135.79 36.9202 128.87 27.4302L111.35 49.6002H127.98L90.7402 94.3402V116.67H100.16L133.48 50.0402V50.0502Z" fill="#E53720"/>
<path d="M129.36 23.1302C119.01 9.21019 102.43 0.200195 83.7501 0.200195C65.0701 0.200195 48.5001 9.21019 38.1401 23.1302L83.7501 79.5402L129.36 23.1402V23.1302Z" fill="#E53720"/>
<path d="M134.28 50.0498H133.48L100.16 116.67H117.02L122.74 104.13H147.23L153.25 116.67H167.6L139.95 61.3898L134.28 50.0498ZM130.56 93.5098H127.55L134.68 77.9198L136.46 81.6598L142.1 93.4998H130.55L130.56 93.5098Z" fill="white"/>
<path d="M127.99 49.6099H111.35H111.32L83.7701 83.9899L56.2301 49.6099H39.5601L76.8001 94.3499V116.68V116.71H90.7501V116.68V94.3499L127.99 49.6099Z" fill="white"/>
<path d="M33.32 50.0898L27.62 61.4898L0 116.71H14.35L20.37 104.17H44.86L50.58 116.71H67.44L67.42 116.68L34.12 50.0898H33.32ZM37.03 93.5498H25.49L31.12 81.7198L32.91 77.9598L40.04 93.5498H37.03Z" fill="white"/>
<path d="M232.06 22.7199C230.78 20.0599 228.74 17.8899 225.94 16.2099C223.14 14.5299 219.57 13.6899 215.23 13.6899H205.07V47.6699H216.89C220 47.6699 222.85 46.9999 225.46 45.6599C228.06 44.3199 230.13 42.3999 231.67 39.9099C233.21 37.4199 233.98 34.5399 233.98 31.2799C233.98 28.2299 233.34 25.3799 232.06 22.7099V22.7199ZM224 38.5299C221.97 40.3199 219.21 41.2099 215.73 41.2099H211.76V20.1099H217.21C218.53 20.1099 219.94 20.4199 221.43 21.0299C222.92 21.6499 224.23 22.7499 225.35 24.3499C226.47 25.9499 227.04 28.1099 227.04 30.8099C227.04 34.1699 226.03 36.7399 223.99 38.5199L224 38.5299Z" fill="white"/>
<path d="M258.91 35.3402C260.73 34.2902 262.07 32.8502 262.95 31.0202C263.83 29.1902 264.27 27.2302 264.27 25.1302C264.27 21.5902 263.11 18.8002 260.78 16.7502C258.46 14.7002 255.19 13.6802 250.97 13.6802H240.67V47.6702H247.37V36.8702H251.85L259.01 47.6702H266.81L258.91 35.3402ZM256.09 28.8102C255.26 29.8702 253.93 30.4002 252.12 30.4002H247.36V20.1502H252.16C254.19 20.1502 255.56 20.7102 256.27 21.8402C256.98 22.9602 257.33 24.1402 257.33 25.3702C257.33 26.6002 256.91 27.7502 256.08 28.8102H256.09Z" fill="white"/>
<path d="M279.04 13.6899H272.34V47.6699H279.04V13.6899Z" fill="white"/>
<path d="M310.48 41.2099H294.51V13.6899H287.81V47.6699H310.48V41.2099Z" fill="white"/>
<path d="M324.1 13.6899H317.41V47.6699H340.08V41.2099H324.1V13.6899Z" fill="white"/>
<path d="M353.7 13.6899H347V47.6699H353.7V13.6899Z" fill="white"/>
<path d="M369.12 27.5901L392.9 49.0601H393.09V13.6901H386.34L386.48 34.1401L362.75 12.3501H362.47V47.6701H369.26L369.12 27.5901Z" fill="white"/>
<path d="M416.77 29.9003V36.3603H422.63V40.4703C421.61 41.0603 420.06 41.3503 417.97 41.3503C415.88 41.3503 413.84 40.9303 412.13 40.1003C410.42 39.2703 409.09 38.0803 408.14 36.5203C407.19 34.9703 406.71 33.1403 406.71 31.0503C406.71 27.4203 407.69 24.6803 409.64 22.8303C411.59 20.9803 414.42 20.0603 418.11 20.0603C419.16 20.0603 420.46 20.2703 422.01 20.6803C423.56 21.1003 424.79 21.5503 425.68 22.0403L427.85 15.8103C426.46 15.0703 424.86 14.4703 423.05 14.0103C421.23 13.5503 419.29 13.3203 417.23 13.3203C414.03 13.3203 411.1 14.0103 408.46 15.3703C405.81 16.7403 403.7 18.8003 402.13 21.5603C400.56 24.3203 399.78 27.6803 399.78 31.6503C399.78 34.8203 400.52 37.6503 402 40.1203C403.48 42.6003 405.58 44.5403 408.3 45.9403C411.02 47.3403 414.19 48.0403 417.79 48.0403C419.11 48.0403 420.58 47.8503 422.2 47.4603C423.82 47.0803 425.29 46.5803 426.63 45.9803C427.97 45.3803 428.9 44.8003 429.42 44.2503V29.8903H416.77V29.9003Z" fill="white"/>
<path d="M214.14 75.7499C214.96 75.1699 216.1 74.8699 217.58 74.8699C219.77 74.8699 222.34 75.6899 225.29 77.3199L227.83 72.1899C226.23 71.1399 224.58 70.3399 222.89 69.7699C221.2 69.1999 219.09 68.9199 216.56 68.9199C213.36 69.0699 210.8 70.0399 208.87 71.8299C206.95 73.6199 205.98 75.9699 205.98 78.8899C205.98 80.8899 206.45 82.5499 207.39 83.8799C208.33 85.1999 209.44 86.2199 210.74 86.9299C212.03 87.6399 213.65 88.3799 215.59 89.1499C218.88 90.4399 220.53 91.9699 220.53 93.7199C220.53 95.0699 220.01 96.0499 218.96 96.6499C217.91 97.2499 216.68 97.5499 215.27 97.5499C214.07 97.5499 212.72 97.2699 211.21 96.7199C209.7 96.1699 208.36 95.4599 207.19 94.5999L204.23 99.8199C205.95 101.05 207.82 101.97 209.82 102.57C211.82 103.17 213.84 103.47 215.87 103.47C218.3 103.47 220.39 103.03 222.15 102.15C223.9 101.27 225.24 100.09 226.14 98.5999C227.05 97.1099 227.5 95.4799 227.5 93.7299C227.5 91.6999 227.12 90.0199 226.37 88.6999C225.62 87.3799 224.67 86.3399 223.53 85.5799C222.39 84.8199 221.02 84.1599 219.42 83.5699C217.45 82.8299 215.87 82.0499 214.69 81.2399C213.51 80.4299 212.91 79.4799 212.91 78.3999C212.91 77.2299 213.32 76.3499 214.13 75.7699L214.14 75.7499Z" fill="white"/>
<path d="M240.76 89.2701H255.35V82.8101H240.76V75.5601H257.24V69.1001H234.06V103.08H257.89V96.6201H240.76V89.2701Z" fill="white"/>
<path d="M287.09 86.4303C287.97 84.6003 288.41 82.6403 288.41 80.5403C288.41 77.0003 287.25 74.2103 284.92 72.1603C282.6 70.1103 279.33 69.0903 275.11 69.0903H264.81V103.07H271.51V92.2703H275.99L283.15 103.07H290.95L283.05 90.7403C284.87 89.6903 286.21 88.2503 287.09 86.4203V86.4303ZM280.23 84.2103C279.4 85.2703 278.07 85.8003 276.26 85.8003H271.5V75.5503H276.3C278.33 75.5503 279.7 76.1103 280.41 77.2403C281.12 78.3603 281.47 79.5403 281.47 80.7703C281.47 82.0003 281.05 83.1503 280.22 84.2103H280.23Z" fill="white"/>
<path d="M309.37 88.2601L301.61 69.1001H293.58L309.09 104.65L324.61 69.1001H316.66L309.37 88.2601Z" fill="white"/>
<path d="M337.17 69.1001H330.47V103.08H337.17V69.1001Z" fill="white"/>
<path d="M365.51 96.18C364.19 96.72 362.69 96.99 361.03 96.99C358.97 96.99 357.17 96.53 355.63 95.61C354.09 94.69 352.91 93.4 352.08 91.75C351.25 90.1 350.83 88.19 350.83 86C350.83 84 351.28 82.18 352.17 80.53C353.06 78.88 354.26 77.58 355.77 76.63C357.28 75.68 358.89 75.2 360.62 75.2C363.17 75.2 365.67 76.12 368.1 77.97L370.73 71.64C369.41 70.81 367.87 70.12 366.11 69.56C364.35 69 362.45 68.73 360.38 68.73C357.12 68.73 354.24 69.48 351.75 70.97C349.26 72.46 347.32 74.55 345.93 77.23C344.54 79.91 343.85 82.96 343.85 86.37C343.85 89.48 344.54 92.33 345.93 94.93C347.31 97.53 349.32 99.6 351.93 101.14C354.55 102.68 357.62 103.45 361.16 103.45C363.38 103.45 365.42 103.1 367.3 102.39C369.18 101.68 370.55 100.97 371.41 100.27L368.64 94.27C367.87 95.01 366.82 95.65 365.5 96.19L365.51 96.18Z" fill="white"/>
<path d="M384.82 89.2701H399.41V82.8101H384.82V75.5601H401.3V69.1001H378.12V103.08H401.95V96.6201H384.82V89.2701Z" fill="white"/>
<path d="M415.86 75.7499C416.68 75.1699 417.82 74.8699 419.3 74.8699C421.49 74.8699 424.06 75.6899 427.01 77.3199L429.55 72.1899C427.95 71.1399 426.3 70.3399 424.61 69.7699C422.92 69.1999 420.81 68.9199 418.28 68.9199C415.08 69.0699 412.52 70.0399 410.59 71.8299C408.66 73.6199 407.7 75.9699 407.7 78.8899C407.7 80.8899 408.17 82.5499 409.11 83.8799C410.05 85.1999 411.16 86.2199 412.46 86.9299C413.75 87.6399 415.37 88.3799 417.31 89.1499C420.6 90.4399 422.25 91.9699 422.25 93.7199C422.25 95.0699 421.73 96.0499 420.68 96.6499C419.63 97.2499 418.4 97.5499 416.99 97.5499C415.79 97.5499 414.44 97.2699 412.93 96.7199C411.42 96.1699 410.08 95.4599 408.91 94.5999L405.96 99.8199C407.68 101.05 409.54 101.97 411.55 102.57C413.55 103.17 415.57 103.47 417.6 103.47C420.03 103.47 422.12 103.03 423.88 102.15C425.63 101.27 426.97 100.09 427.87 98.5999C428.78 97.1099 429.23 95.4799 429.23 93.7299C429.23 91.6999 428.85 90.0199 428.1 88.6999C427.35 87.3799 426.4 86.3399 425.26 85.5799C424.12 84.8199 422.75 84.1599 421.15 83.5699C419.18 82.8299 417.6 82.0499 416.42 81.2399C415.24 80.4299 414.64 79.4799 414.64 78.3999C414.64 77.2299 415.05 76.3499 415.86 75.7699V75.7499Z" fill="white"/>
<path d="M184.17 0H179.82V117H184.17V0Z" fill="#E53720"/>
</g>
<defs>
<clipPath id="clip0_78_2">
<rect width="429.56" height="117" fill="white"/>
</clipPath>
</defs>
</svg>
